<?xml version="1.0" standalone="no"?>
<!DOCTYPE svg PUBLIC "-//W3C//DTD SVG 20010904//EN"
 "http://www.w3.org/TR/2001/REC-SVG-20010904/DTD/svg10.dtd">
<svg version="1.0" xmlns="http://www.w3.org/2000/svg"
 width="736.000000pt" height="920.000000pt" viewBox="0 0 736.000000 920.000000"
 preserveAspectRatio="xMidYMid meet">
<metadata>
Created by potrace 1.16, written by Peter Selinger 2001-2019
</metadata>
<g transform="translate(0.000000,920.000000) scale(0.100000,-0.100000)"
fill="#000000" stroke="none">
<path d="M1610 7086 c-145 -28 -223 -66 -300 -147 -76 -79 -103 -139 -108
-239 l-4 -85 -62 -60 c-56 -54 -64 -66 -74 -119 -15 -75 -15 -252 -1 -351 10
-66 10 -78 -5 -94 -12 -14 -21 -60 -32 -185 -16 -166 -16 -168 6 -225 12 -32
38 -86 59 -121 l39 -64 -24 -69 c-33 -96 -64 -262 -71 -379 -7 -115 7 -199 47
-278 15 -30 33 -88 39 -129 6 -40 16 -82 21 -92 14 -25 15 -24 -35 -54 -25
-14 -83 -63 -129 -108 -92 -91 -116 -133 -201 -355 -40 -102 -45 -125 -34
-138 15 -19 1 -81 -42 -188 -36 -89 -44 -97 -90 -87 -62 14 -196 -15 -139 -30
l25 -6 -27 -13 c-35 -17 -36 -34 -2 -26 14 4 31 2 38 -3 19 -16 150 -34 189
-27 37 7 40 12 52 76 12 60 57 203 76 242 11 21 28 42 38 47 13 7 24 34 35 83
9 40 27 96 40 124 21 45 33 57 106 100 46 27 115 79 155 116 64 59 74 66 86
52 7 -8 31 -26 55 -40 29 -17 43 -33 47 -54 4 -16 31 -58 61 -93 l54 -64 -58
-42 c-82 -60 -213 -191 -233 -232 -9 -20 -39 -65 -68 -100 -93 -116 -111 -147
-104 -177 5 -23 -6 -46 -60 -128 -99 -148 -106 -154 -180 -154 -49 0 -75 -7
-133 -35 -40 -19 -72 -39 -72 -45 0 -13 6 -13 32 1 17 9 20 9 15 -4 -5 -13 14
-15 146 -13 l151 1 41 71 c52 92 147 217 179 233 13 7 41 44 61 82 57 102 126
176 174 184 47 8 173 78 240 134 27 23 52 41 56 41 4 0 26 -17 50 -38 65 -57
193 -115 303 -137 17 -4 32 -12 32 -18 0 -7 -11 -43 -25 -82 -31 -89 -31 -116
0 -153 21 -25 25 -40 25 -88 0 -33 -5 -77 -11 -99 -6 -22 -10 -101 -9 -176 2
-139 -11 -204 -42 -213 -75 -21 -100 -32 -118 -51 -23 -25 -10 -46 14 -25 11
8 15 8 18 -2 4 -10 8 -10 22 1 12 10 44 15 99 15 l82 1 5 33 5 33 38 -45 c63
-76 150 -134 333 -222 192 -92 241 -122 324 -198 141 -128 307 -236 428 -277
141 -48 328 -47 236 1 -14 8 -33 27 -42 42 -10 18 -25 28 -39 28 -13 0 -40 15
-60 34 -21 18 -57 43 -80 55 -54 27 -67 51 -59 110 6 44 4 47 -29 69 -19 12
-39 22 -44 22 -18 0 -29 33 -24 70 4 25 0 46 -11 62 -16 24 -15 27 16 76 18
27 47 72 63 98 44 72 83 72 205 0 55 -32 90 -45 131 -50 l56 -6 -1 37 c0 20 4
38 11 40 7 2 31 -13 55 -35 24 -21 64 -49 90 -61 40 -19 50 -29 60 -63 7 -25
20 -43 34 -48 12 -5 42 -44 69 -89 26 -45 51 -81 55 -81 12 0 18 47 13 106
-13 173 -128 355 -308 489 -128 95 -185 168 -209 267 l-6 27 42 -15 c69 -25
142 -21 252 15 54 17 118 34 142 38 25 3 55 15 68 28 22 21 66 120 66 150 0
23 14 18 60 -20 23 -19 53 -35 66 -35 13 0 44 -5 69 -12 39 -10 69 -35 191
-153 80 -78 165 -150 187 -162 49 -24 143 -43 213 -43 28 0 55 -5 62 -12 6 -6
15 -9 19 -5 4 4 1 13 -5 19 -19 19 -14 30 8 18 38 -20 22 17 -17 41 -60 37
-84 45 -147 52 -56 6 -63 9 -118 64 -32 31 -61 65 -64 75 -3 10 -24 31 -47 47
-23 16 -64 50 -92 75 -27 25 -54 46 -59 46 -8 0 0 66 11 83 2 4 25 -19 51 -50
64 -80 71 -84 117 -78 22 2 93 6 158 7 64 2 117 6 117 10 0 4 -8 12 -17 18
-17 11 -17 11 -1 6 10 -3 20 -1 23 5 4 5 -24 23 -60 41 -64 30 -70 31 -134 21
l-66 -10 -34 36 c-62 67 -65 74 -43 118 10 21 25 60 32 86 7 27 19 51 27 54 8
3 41 -7 74 -22 33 -15 75 -31 92 -37 41 -12 188 -29 302 -33 138 -6 147 -9
218 -78 42 -41 91 -76 147 -105 47 -24 105 -54 129 -66 24 -13 67 -27 95 -31
28 -3 82 -15 121 -26 97 -26 244 -40 290 -28 25 7 52 7 83 0 26 -6 104 -18
173 -26 181 -21 278 -53 465 -150 174 -91 352 -161 368 -145 23 23 -34 94
-262 325 -178 181 -262 258 -336 310 -59 41 -149 119 -220 191 -166 167 -302
253 -443 280 -169 32 -489 29 -729 -7 l-80 -13 -47 32 c-88 61 -132 74 -257
79 -156 7 -217 -6 -294 -61 -60 -43 -136 -118 -167 -165 l-16 -25 -49 32 c-96
61 -319 172 -346 172 -27 0 -48 -17 -97 -80 l-19 -24 -42 28 c-32 21 -160 76
-177 76 -1 0 -7 16 -13 35 -12 37 -123 135 -175 155 -66 25 -100 12 -149 -55
-13 -18 -18 -19 -63 -7 -26 7 -71 24 -100 37 -62 28 -78 55 -122 203 -38 130
-54 159 -96 179 -58 27 -82 11 -207 -140 l-23 -28 -79 33 c-70 29 -83 38 -105
78 -38 65 -93 116 -138 127 -43 10 -97 71 -140 161 -28 58 -80 106 -160 146
-28 14 -64 42 -79 62 -15 20 -54 53 -86 75 -31 22 -85 72 -119 112 -34 39 -74
79 -88 87 -26 14 -27 19 -30 120 -1 58 -7 121 -11 140 -41 159 -60 214 -84
239 -14 15 -26 35 -26 45 0 10 22 43 50 72 31 35 52 68 56 90 10 54 10 225 0
263 l-9 34 31 -6 c39 -8 170 24 234 57 39 20 49 22 58 11 6 -8 43 -35 80 -61
83 -56 127 -65 240 -49 93 13 91 14 126 -75 24 -61 95 -171 157 -242 56 -64
119 -114 189 -149 50 -25 175 -124 188 -150 15 -27 12 -63 -11 -120 -30 -78
-35 -164 -14 -230 10 -30 53 -124 95 -209 53 -106 87 -191 109 -268 17 -62 40
-130 51 -151 22 -45 68 -101 81 -101 17 0 9 27 -16 50 -56 53 -81 191 -50 279
8 22 46 85 84 140 39 54 83 125 98 157 25 54 28 70 28 174 0 108 -2 119 -31
180 -17 36 -55 91 -84 124 -46 50 -54 64 -55 100 -2 33 -11 55 -43 97 -22 30
-50 79 -62 109 -86 219 -250 428 -460 585 -54 41 -92 77 -102 99 -9 19 -29 42
-43 53 -15 10 -43 32 -63 49 -52 45 -127 87 -202 114 -58 21 -84 24 -250 26
-116 1 -209 -2 -250 -10z m948 -433 c119 -124 163 -182 228 -298 21 -38 64
-98 96 -132 32 -34 58 -70 58 -80 1 -10 3 -39 5 -65 4 -44 2 -49 -24 -62 -15
-8 -33 -22 -40 -30 -17 -20 -26 -14 -58 37 -14 23 -79 107 -143 187 -64 80
-143 186 -177 235 -33 50 -90 125 -127 168 -36 43 -66 84 -66 90 0 11 99 63
125 66 6 1 61 -52 123 -116z m494 -783 c2 -19 -3 -54 -10 -77 -13 -39 -12 -46
7 -77 12 -18 21 -39 21 -46 0 -21 -52 61 -76 120 -17 41 -31 60 -58 75 -20 11
-36 22 -36 25 1 3 19 17 42 31 l41 26 33 -21 c25 -16 33 -29 36 -56z m-1836
-458 c-43 -65 -58 -132 -46 -203 27 -154 42 -206 67 -243 51 -77 53 -86 37
-124 -13 -33 -13 -37 17 -89 17 -30 69 -95 116 -144 71 -74 83 -92 73 -104
-11 -13 -15 -13 -41 0 -33 17 -39 18 -39 6 0 -5 15 -19 34 -31 29 -18 38 -19
55 -8 18 11 26 7 73 -38 29 -28 74 -63 100 -78 51 -29 52 -36 15 -90 l-20 -29
-86 90 c-121 126 -177 169 -196 153 -21 -18 -19 -43 3 -36 9 3 28 -3 42 -14
15 -12 20 -20 11 -20 -8 0 -22 -7 -32 -16 -20 -18 -39 -11 -39 12 0 24 -25 10
-26 -15 -1 -12 -4 -25 -8 -28 -3 -4 1 -17 9 -30 16 -24 8 -32 -13 -11 -17 17
-15 79 3 102 28 37 17 52 -14 22 -31 -30 -56 -27 -46 5 6 19 3 19 -43 13 -46
-6 -51 -4 -63 17 -7 13 -13 53 -13 89 0 51 6 76 27 117 32 63 20 79 -17 23
-14 -22 -30 -40 -35 -40 -5 0 -16 15 -24 33 -56 120 -48 303 16 356 23 19 21
34 -3 26 -18 -6 -20 -2 -20 32 0 52 35 184 66 250 22 46 80 110 91 100 2 -2
-12 -27 -31 -55z m117 -35 c20 -44 26 -148 12 -241 -7 -49 -6 -58 6 -54 8 3
22 1 32 -4 12 -6 23 -5 33 3 30 25 22 2 -16 -46 -36 -45 -50 -75 -35 -75 3 0
23 18 45 41 l38 41 59 -7 c32 -4 60 -9 62 -11 1 -1 -17 -8 -40 -14 -43 -12
-102 -49 -126 -80 -21 -28 6 -22 44 9 58 48 64 37 8 -13 -53 -47 -57 -73 -6
-36 33 23 40 17 16 -14 -20 -27 -8 -39 20 -20 18 12 28 13 44 4 11 -6 32 -8
46 -4 35 9 33 -11 -9 -80 -34 -56 -55 -130 -41 -144 3 -4 11 2 17 13 14 26 83
95 94 95 5 0 -22 -32 -59 -72 l-68 -72 -22 26 c-12 14 -37 36 -55 48 -83 56
-118 150 -86 230 15 37 15 45 4 48 -33 11 -101 88 -103 116 -2 28 4 35 53 54
25 9 25 9 -12 25 -47 20 -48 27 -5 21 17 -3 39 0 47 6 13 9 13 12 -2 20 -26
16 -33 72 -13 109 13 27 14 38 5 67 -13 38 -41 45 -72 17 -10 -9 -18 -13 -18
-10 0 3 10 16 22 27 32 30 60 22 81 -23z m643 -706 c-3 -4 -31 -13 -63 -20
-70 -14 -133 -48 -150 -81 -21 -42 -3 -42 74 0 41 22 77 40 79 40 15 0 -12
-22 -52 -41 -25 -13 -72 -49 -104 -81 -33 -32 -62 -58 -66 -58 -21 0 -94 56
-94 71 0 13 61 79 73 79 7 0 35 16 64 36 45 31 65 38 135 45 45 5 84 12 87 14
8 9 22 5 17 -4z m546 -343 c-23 -25 -46 -78 -37 -86 3 -3 19 7 35 23 17 16 30
24 30 18 0 -5 -9 -18 -20 -28 -11 -10 -30 -45 -42 -78 -12 -32 -26 -60 -32
-62 -46 -14 -76 -13 -76 0 0 23 -20 18 -29 -7 -4 -12 -10 -17 -14 -12 -7 13 6
36 63 110 59 78 120 144 133 144 6 0 1 -10 -11 -22z m-733 -40 c19 -13 54 -30
76 -38 22 -9 41 -22 43 -30 1 -9 -11 -37 -28 -64 -31 -48 -31 -48 -73 -42 -44
7 -117 66 -117 94 0 15 49 102 57 102 3 0 22 -10 42 -22z m286 -138 c13 0 36
-11 52 -24 42 -34 68 -46 105 -46 40 0 63 -13 53 -30 -7 -11 -18 -10 -75 2
-29 6 -21 -17 9 -26 17 -5 31 -13 31 -18 0 -12 -55 -1 -93 19 -16 8 -31 12
-34 9 -10 -10 8 -25 52 -42 25 -9 45 -21 45 -26 0 -14 -38 1 -120 47 -72 41
-155 75 -185 75 -26 0 -27 21 -1 65 l26 44 55 -25 c31 -13 66 -24 80 -24z
m1440 -28 c28 -11 68 -25 90 -31 26 -8 63 -33 104 -71 62 -58 75 -84 32 -60
-12 6 -37 12 -56 14 -19 1 -44 11 -55 21 -24 22 -39 12 -22 -15 15 -25 15 -30
-1 -30 -8 0 -31 25 -52 55 -21 31 -61 76 -89 101 -43 38 -47 45 -26 41 14 -3
48 -14 75 -25z m1775 -23 c58 -7 141 -12 186 -10 49 1 104 -4 141 -13 34 -9
74 -16 89 -16 16 -1 47 -8 69 -16 22 -9 66 -22 97 -29 31 -7 67 -20 80 -29 13
-9 41 -21 63 -27 43 -12 77 -34 139 -94 53 -50 68 -59 234 -146 148 -77 223
-134 325 -247 63 -70 60 -86 -5 -28 -184 163 -355 255 -773 414 -259 99 -378
137 -742 238 -29 8 -53 19 -53 24 0 6 9 6 23 1 12 -5 69 -14 127 -22z m-3414
-30 c86 -26 290 -126 369 -182 73 -52 79 -74 35 -128 -17 -22 -44 -65 -60 -97
-16 -31 -49 -81 -74 -110 -39 -46 -44 -56 -35 -74 7 -13 8 -23 1 -30 -12 -12
-32 -2 -32 17 0 21 108 224 142 268 16 20 27 41 24 45 -9 15 -230 119 -278
132 -53 14 -116 63 -148 115 -21 34 -40 46 -40 24 0 -6 12 -40 26 -75 14 -35
24 -69 22 -75 -2 -6 -24 5 -48 24 -25 18 -53 36 -62 40 -23 8 -23 19 2 67 33
66 53 70 156 39z m1469 -19 c5 -4 21 -10 35 -12 17 -2 31 -15 44 -39 11 -19
32 -43 48 -52 33 -19 39 -48 7 -40 -15 4 -22 0 -26 -16 -7 -26 -4 -26 -49 4
-20 14 -43 25 -50 25 -17 0 -18 -32 -2 -48 23 -23 -20 -25 -49 -2 -26 20 -28
20 -40 4 -12 -17 -15 -16 -41 9 -16 15 -45 32 -65 38 -47 13 -50 39 -4 39 53
0 107 12 107 23 0 6 -12 24 -27 39 -34 36 -12 38 39 3 20 -14 39 -25 42 -25
15 0 3 24 -19 42 -14 11 -23 24 -20 28 6 9 50 -4 70 -20z m-1684 -48 c-6 -12
-11 -32 -11 -46 0 -20 -6 -27 -27 -32 -93 -19 -178 -69 -276 -161 -53 -51 -85
-63 -94 -37 -3 9 132 145 182 184 75 57 220 129 233 115 2 -2 -1 -12 -7 -23z
m741 12 c45 6 49 5 87 -34 l39 -40 84 0 c78 0 87 -2 124 -30 21 -16 45 -30 52
-30 21 0 13 -17 -10 -23 -13 -3 -37 -11 -54 -18 -29 -12 -35 -10 -80 19 -53
36 -64 39 -64 17 0 -32 -59 -25 -82 9 -6 8 -11 7 -17 -3 -8 -12 -14 -12 -44 2
-19 10 -40 17 -45 17 -6 0 -12 10 -14 23 -3 20 -8 22 -50 19 -32 -3 -48 0 -48
8 0 9 21 11 73 9 59 -3 72 -1 72 11 0 11 -16 17 -63 21 -66 6 -78 11 -68 28 5
7 15 7 34 0 15 -6 48 -8 74 -5z m1563 -63 c26 -22 81 -54 121 -71 40 -18 75
-38 78 -45 6 -17 -104 -65 -149 -65 -28 0 -37 6 -49 29 -8 15 -29 34 -46 41
-16 7 -30 18 -30 25 0 16 22 125 25 125 2 0 24 -18 50 -39z m-1504 -323 c-39
-40 -71 -79 -71 -85 0 -31 52 -10 121 47 50 42 80 60 99 60 16 0 35 3 44 6 9
3 16 2 16 -4 0 -6 -23 -18 -51 -27 -35 -12 -66 -32 -94 -62 -40 -41 -47 -44
-112 -51 -81 -9 -112 -27 -156 -88 -17 -24 -32 -42 -35 -40 -10 11 38 77 99
137 38 37 69 72 69 78 0 6 20 22 44 36 23 14 51 34 61 45 10 11 22 20 27 20 6
0 -22 -33 -61 -72z m349 -468 c11 0 11 -3 2 -12 -19 -19 -14 -29 13 -22 16 4
25 2 25 -6 0 -7 7 -10 15 -6 9 3 25 0 35 -6 15 -10 22 -10 32 0 21 21 -4 47
-41 44 -17 -1 -31 0 -31 2 0 2 16 14 36 25 36 21 54 20 54 -3 0 -7 13 -22 29
-34 31 -22 80 -22 109 1 15 12 16 2 0 -22 -9 -15 -9 -25 0 -45 15 -33 2 -33
-28 -1 -33 35 -44 31 -37 -11 6 -38 1 -39 -17 -2 -15 29 -34 34 -43 11 -8 -23
-33 -53 -45 -53 -4 0 -8 9 -8 20 0 16 -5 19 -23 15 -17 -5 -32 2 -56 24 -18
17 -34 31 -36 31 -1 0 -5 -9 -8 -19 -4 -15 -10 -18 -28 -14 -18 5 -21 3 -16
-10 4 -11 2 -14 -9 -10 -21 8 -17 29 11 47 25 17 34 59 15 71 -5 3 -10 11 -10
17 0 6 10 2 23 -10 13 -12 30 -22 37 -22z m892 -291 c50 -25 155 -149 189
-223 29 -65 50 -174 30 -162 -6 4 -11 19 -11 34 0 79 -108 224 -229 309 -36
26 -68 48 -70 49 -1 2 0 8 4 14 8 12 33 6 87 -21z m-661 -7 c33 -13 36 -21 44
-123 l6 -84 -23 45 c-33 65 -92 105 -184 125 -77 18 -177 15 -216 -6 -12 -6
-18 -6 -18 0 0 15 58 43 105 52 53 10 253 3 286 -9z"/>
<path d="M1885 3991 c-10 -18 55 -53 107 -58 57 -5 96 -23 183 -88 33 -24 66
-47 73 -51 18 -9 28 4 14 18 -7 7 -12 21 -12 33 0 15 -15 28 -57 49 -32 15
-86 46 -120 68 -57 37 -64 39 -78 24 -20 -19 -32 -20 -65 -1 -30 17 -37 18
-45 6z"/>
</g>
</svg>
