<?xml version="1.0" standalone="no"?>
<!DOCTYPE svg PUBLIC "-//W3C//DTD SVG 20010904//EN"
 "http://www.w3.org/TR/2001/REC-SVG-20010904/DTD/svg10.dtd">
<svg version="1.0" xmlns="http://www.w3.org/2000/svg"
 width="1640.000000pt" height="492.000000pt" viewBox="0 0 1640.000000 492.000000"
 preserveAspectRatio="xMidYMid meet">

<g transform="translate(0.000000,492.000000) scale(0.100000,-0.100000)"
fill="#000000" stroke="none">
<path d="M2925 4690 c-71 -5 -152 -13 -178 -19 -116 -27 -233 -116 -284 -215
-17 -34 -26 -72 -30 -125 l-6 -76 -52 -50 c-44 -42 -55 -59 -64 -103 -14 -66
-14 -252 -1 -321 8 -42 7 -57 -6 -76 -10 -15 -20 -75 -29 -170 -14 -140 -13
-149 5 -198 11 -29 35 -77 53 -107 l33 -55 -22 -74 c-30 -95 -64 -296 -64
-375 0 -72 22 -166 50 -211 11 -18 24 -61 29 -97 5 -36 14 -76 21 -88 13 -25
16 -21 -40 -59 -75 -50 -178 -160 -210 -225 -16 -34 -50 -112 -74 -175 -35
-93 -42 -119 -34 -137 8 -18 4 -41 -17 -106 -44 -132 -50 -141 -93 -134 -45 7
-142 -3 -142 -15 0 -5 8 -9 18 -10 14 0 13 -3 -5 -16 -30 -20 -29 -28 5 -30
15 0 47 -6 72 -12 62 -14 136 -14 147 2 6 6 13 27 17 46 18 97 69 235 96 260
19 18 32 46 44 96 26 107 50 143 126 186 36 20 95 64 131 98 l67 61 56 -37
c39 -26 56 -44 56 -59 0 -12 17 -41 38 -65 68 -80 67 -73 20 -104 -58 -38
-196 -173 -215 -210 -9 -16 -44 -66 -78 -110 -73 -94 -89 -121 -81 -141 8 -21
-22 -76 -93 -172 l-61 -82 -60 0 c-47 0 -74 -7 -120 -30 -57 -29 -83 -59 -40
-45 11 3 20 3 20 -2 0 -11 129 -15 207 -8 l62 6 35 63 c43 76 117 173 157 204
16 13 38 40 48 61 11 20 40 64 65 98 40 52 55 64 99 79 65 21 142 64 207 115
27 21 52 39 56 39 4 0 26 -16 50 -35 52 -43 148 -89 228 -109 32 -9 61 -18 64
-20 2 -3 -5 -33 -17 -67 -26 -79 -27 -119 -1 -147 25 -27 28 -132 4 -191 -11
-27 -13 -45 -6 -57 11 -21 4 -199 -10 -236 -8 -21 -21 -31 -52 -39 -38 -10
-86 -43 -86 -59 0 -4 14 -7 30 -7 17 0 30 4 30 8 0 5 35 7 78 6 l77 -2 3 33
c2 17 7 32 13 32 5 0 9 -4 9 -9 0 -15 82 -96 132 -130 26 -17 117 -65 202
-106 165 -78 186 -92 310 -198 171 -147 316 -224 463 -247 97 -16 157 1 98 28
-14 7 -30 23 -37 37 -7 17 -19 25 -35 25 -14 0 -39 15 -60 35 -20 19 -42 35
-49 35 -7 0 -27 12 -44 27 -30 25 -32 30 -27 74 l6 48 -49 30 c-47 29 -49 32
-43 65 4 24 0 44 -11 60 -17 26 -16 28 79 169 34 50 65 49 169 -7 46 -24 101
-46 127 -49 l47 -6 -2 31 c-2 45 23 47 69 4 20 -19 47 -38 59 -42 27 -8 66
-44 66 -60 0 -7 17 -30 38 -52 21 -22 52 -65 68 -96 30 -57 43 -69 45 -38 0 9
2 27 5 40 7 37 -22 154 -52 213 -59 118 -123 192 -241 278 -73 53 -131 121
-158 185 -25 58 -21 66 23 50 59 -21 124 -16 222 16 50 16 99 30 110 30 12 0
36 6 54 14 29 12 38 25 63 89 l29 76 43 -35 c25 -19 55 -34 70 -34 73 0 109
-26 279 -203 67 -70 124 -101 214 -116 43 -7 82 -10 87 -7 5 4 22 1 37 -4 33
-13 42 -6 23 16 -12 15 -11 16 9 10 31 -10 29 11 -3 26 -14 6 -25 14 -25 18 0
9 -66 28 -120 34 -41 4 -52 12 -126 88 -44 46 -110 108 -147 138 -62 51 -66
57 -61 85 9 43 13 44 40 10 73 -88 85 -97 118 -90 17 4 79 7 139 7 59 1 107 4
107 7 0 4 -6 13 -12 20 -9 10 -9 12 -1 7 6 -3 15 -2 18 4 4 6 -18 22 -50 36
-49 23 -64 25 -123 19 l-67 -6 -38 47 c-25 31 -35 53 -31 63 4 9 17 45 29 81
27 76 33 78 135 35 66 -28 168 -44 311 -50 125 -4 142 -10 204 -71 31 -31 70
-62 88 -69 18 -7 68 -34 112 -59 44 -25 89 -46 100 -46 11 0 67 -12 125 -26
78 -19 137 -26 230 -28 165 -4 313 -22 433 -51 75 -18 134 -43 250 -103 175
-92 325 -149 333 -127 10 25 -27 77 -115 164 -48 47 -113 115 -144 149 -74 84
-194 191 -287 256 -41 29 -127 105 -190 168 -121 120 -225 194 -321 228 -127
44 -499 52 -702 15 l-89 -16 -52 35 c-86 57 -137 69 -284 65 l-129 -4 -55 -37
c-62 -41 -120 -95 -159 -148 l-26 -34 -64 41 c-91 58 -258 143 -281 143 -30 0
-54 -17 -78 -55 -12 -19 -26 -35 -30 -35 -5 0 -26 11 -46 25 -20 14 -61 32
-91 42 -46 14 -58 23 -74 55 -32 63 -153 148 -210 148 -12 0 -37 -16 -55 -36
-40 -42 -52 -43 -126 -15 -94 36 -103 47 -148 190 -42 136 -67 174 -115 174
-42 0 -73 -22 -126 -91 -55 -70 -50 -69 -145 -27 -40 18 -59 35 -90 81 -31 47
-51 65 -96 87 -59 28 -91 65 -136 154 -24 47 -77 94 -139 124 -24 11 -58 37
-75 58 -18 20 -49 48 -68 61 -19 13 -76 65 -126 117 l-91 94 -2 87 c-2 108
-51 294 -87 333 -13 14 -24 31 -24 38 0 7 20 35 45 63 27 31 47 63 51 86 10
52 10 203 0 230 -8 20 -5 22 26 22 45 0 176 37 214 61 29 17 33 18 45 3 7 -9
40 -35 74 -58 58 -40 63 -41 140 -41 44 0 94 3 112 7 l31 7 51 -102 c69 -142
160 -246 272 -311 46 -27 110 -72 142 -99 57 -49 59 -52 54 -91 -2 -23 -12
-68 -22 -101 -30 -105 -20 -152 72 -339 53 -107 90 -197 107 -260 29 -110 52
-159 92 -199 37 -37 46 -15 10 22 -50 52 -72 184 -42 254 7 18 41 71 74 118
106 147 135 243 113 363 -15 79 -41 132 -101 200 -39 44 -50 65 -50 90 0 23
-12 50 -35 82 -19 27 -41 63 -47 79 -36 92 -117 233 -178 311 -72 92 -190 203
-276 263 -29 19 -56 48 -66 70 -11 23 -33 46 -57 59 -21 12 -41 28 -44 36 -3
7 -47 34 -99 59 -68 33 -114 48 -171 56 -43 6 -81 10 -85 9 -4 0 -65 -4 -137
-8z m-25 -30 c0 -5 -4 -10 -9 -10 -15 0 -70 -107 -77 -149 -9 -57 -24 -51 -24
9 0 61 29 123 68 144 32 18 42 19 42 6z m171 -26 c171 -59 293 -94 310 -89 9
3 20 1 24 -5 3 -5 -2 -10 -13 -10 -30 0 -60 -30 -87 -85 -19 -40 -24 -45 -25
-25 0 14 11 44 25 68 17 30 21 44 12 47 -7 3 -39 13 -72 24 -79 25 -205 69
-230 81 -11 5 -29 11 -40 13 -19 4 -19 5 1 6 12 0 55 -10 95 -25z m-291 1 c0
-3 -6 -21 -14 -39 -13 -30 -18 -34 -69 -39 -45 -6 -97 -23 -160 -55 -4 -2 -5
2 -2 10 15 39 245 154 245 123z m394 -141 c56 -14 92 -32 82 -41 -2 -3 -17 2
-33 10 -15 8 -53 20 -83 26 -30 7 -66 21 -80 32 l-25 20 40 -17 c22 -9 67 -22
99 -30z m-414 -5 c0 -17 5 -39 11 -51 6 -11 8 -22 5 -25 -6 -7 -20 28 -31 75
-4 20 -3 32 4 32 6 0 11 -14 11 -31z m704 -9 c36 -13 33 -28 -4 -22 -47 7 -87
-36 -100 -108 l-7 -35 -8 49 c-9 60 2 96 35 113 30 15 51 16 84 3z m16 -55 c0
-5 -68 -35 -79 -35 -3 1 5 10 18 20 21 18 61 28 61 15z m192 -159 c80 -87 127
-148 163 -212 27 -49 73 -114 101 -144 47 -50 52 -60 56 -112 5 -57 4 -58 -33
-83 -21 -14 -41 -25 -44 -25 -2 0 -16 17 -29 39 -14 21 -72 98 -131 171 -58
73 -133 172 -165 220 -33 48 -83 113 -110 144 -28 32 -50 64 -50 72 0 16 98
63 117 56 7 -2 63 -59 125 -126z m-676 88 c91 -57 104 -62 173 -73 36 -6 69
-16 75 -22 8 -9 3 -10 -19 -4 -16 4 -53 11 -82 15 -57 10 -66 13 -139 62 -28
18 -60 38 -70 45 -10 6 -14 12 -8 12 5 1 37 -15 70 -35z m294 -14 c-6 -12 -9
-35 -5 -53 5 -24 4 -28 -4 -17 -6 8 -11 25 -11 38 0 25 19 67 27 59 2 -3 -1
-15 -7 -27z m-680 -31 c-19 -12 -52 -37 -74 -57 -21 -21 -36 -30 -34 -22 7 21
105 100 126 100 10 0 3 -8 -18 -21z m-180 -116 c0 -10 28 -44 62 -75 34 -32
59 -61 55 -64 -8 -8 -38 3 -67 26 -15 12 -18 18 -7 14 27 -10 20 5 -23 52 -40
43 -49 64 -30 64 6 0 10 -8 10 -17z m74 -33 c21 -22 36 -40 33 -40 -11 0 -77
62 -77 71 0 14 2 12 44 -31z m952 -67 c35 -55 125 -163 191 -229 25 -25 28
-31 12 -27 -10 3 -29 20 -41 37 -12 17 -55 68 -95 113 -62 71 -124 163 -109
163 3 0 22 -26 42 -57z m-1019 6 c-10 -6 -32 -32 -48 -57 -32 -50 -38 -50 -13
1 23 44 44 67 63 67 13 -1 13 -2 -2 -11z m78 -403 c-38 -13 -79 -27 -90 -31
-11 -5 -17 -5 -13 -1 12 14 123 56 148 55 14 0 -5 -10 -45 -23z m1552 -1 c15
-13 23 -25 16 -25 -6 0 -15 5 -18 10 -8 13 -52 13 -60 0 -4 -6 -25 -19 -48
-31 l-42 -20 48 46 c27 25 55 45 62 45 8 0 27 -11 42 -25z m-1721 -41 c-9 -8
-16 -20 -16 -26 0 -6 -3 -9 -6 -5 -10 10 7 47 22 47 13 0 13 -2 0 -16z m166
-31 c2 -21 1 -69 -2 -108 l-7 -70 -1 88 c-2 90 -10 106 -31 61 -6 -15 -14 -24
-16 -22 -6 6 37 88 46 88 4 0 8 -17 11 -37z m1548 15 c33 -24 39 -60 19 -117
-9 -26 -8 -37 10 -67 12 -20 20 -38 18 -41 -8 -7 -67 91 -77 128 -7 27 -18 40
-40 49 -37 15 -37 19 -2 47 34 28 36 28 72 1z m-1651 -115 c-7 -21 -16 -83
-19 -138 l-7 -100 -1 90 c-2 95 18 208 34 192 3 -3 0 -23 -7 -44z m1514 -35
c-9 -18 -22 -55 -29 -83 -12 -49 -12 -49 -13 -13 -1 42 13 85 36 110 24 26 26
22 6 -14z m105 -39 c39 -106 38 -102 11 -94 -23 7 -43 26 -75 71 -13 19 -13
26 3 58 9 20 22 35 27 33 6 -2 21 -32 34 -68z m-1358 -146 c13 -14 13 -15 -3
-9 -47 16 -67 16 -102 2 -32 -14 -36 -14 -25 -1 16 19 69 35 95 28 11 -3 27
-12 35 -20z m-225 -123 c-44 -65 -52 -120 -32 -213 9 -39 19 -87 21 -105 3
-19 22 -60 42 -92 34 -55 35 -60 23 -93 -11 -32 -10 -39 14 -80 15 -25 60 -81
102 -125 41 -44 75 -84 75 -90 0 -18 -24 -20 -48 -4 -32 21 -40 7 -11 -18 17
-14 33 -19 53 -15 23 4 37 -3 79 -41 28 -25 68 -54 88 -65 41 -20 42 -35 9
-79 l-19 -25 -88 90 c-48 50 -102 100 -119 112 -31 22 -32 22 -49 2 -17 -18
-17 -19 7 -19 26 0 74 -29 49 -30 -8 0 -23 -8 -33 -17 -18 -16 -19 -16 -25 5
-10 39 -28 18 -27 -31 0 -37 -2 -44 -13 -35 -18 15 -16 64 3 94 22 32 8 46
-17 16 -19 -24 -45 -21 -35 4 5 12 -4 14 -41 12 -47 -3 -48 -3 -61 37 -16 49
-10 111 18 165 22 43 24 50 13 50 -5 0 -18 -16 -31 -36 -12 -19 -27 -32 -33
-28 -34 21 -64 183 -47 256 5 23 20 57 34 75 29 38 30 45 7 41 -15 -3 -18 4
-16 43 6 105 87 289 127 289 10 0 4 -16 -19 -50z m225 19 c52 -24 90 -56 90
-78 0 -10 -10 -4 -30 16 -37 37 -88 63 -127 63 -22 0 -25 2 -13 10 21 13 29
12 80 -11z m-123 -36 c15 -23 18 -48 17 -149 l-1 -122 26 -5 c14 -3 32 0 39 5
28 23 20 -1 -13 -39 -53 -62 -44 -90 10 -33 26 27 34 30 82 28 60 -3 69 -13
20 -22 -40 -8 -117 -62 -117 -83 0 -10 11 -6 39 16 56 44 64 38 11 -8 -25 -21
-42 -42 -38 -47 5 -4 17 1 28 11 23 21 39 13 20 -10 -15 -19 -6 -32 12 -17 14
11 108 4 108 -8 0 -4 -16 -37 -35 -74 -35 -68 -48 -134 -22 -120 6 4 4 -2 -6
-12 -18 -19 -18 -19 -35 2 -9 11 -36 35 -59 52 -70 54 -100 140 -69 201 14 27
13 28 -35 70 -27 23 -52 53 -55 67 -7 28 10 54 37 54 28 0 23 17 -6 24 -34 9
-32 27 3 20 15 -2 34 0 42 6 13 9 13 12 -2 20 -25 15 -31 61 -13 97 11 22 13
38 6 56 -14 36 -28 41 -59 21 l-27 -17 19 21 c26 30 52 28 73 -5z m90 -26 c15
-13 58 -43 95 -66 73 -46 85 -63 62 -86 -19 -19 -63 -19 -106 -1 -18 8 -42 17
-52 21 -10 3 -16 8 -13 12 4 3 29 -2 56 -11 58 -19 77 -20 87 -5 10 16 -46 68
-86 79 -21 6 -46 24 -63 45 -32 40 -22 46 20 12z m278 -268 c25 -12 31 -17 15
-14 -73 15 -98 16 -104 6 -4 -6 -13 -11 -19 -11 -7 1 -1 10 12 20 28 24 44 24
96 -1z m173 -96 c-10 -2 -28 -2 -40 0 -13 2 -5 4 17 4 22 1 32 -1 23 -4z
m-128 -12 c-19 -4 -45 -11 -57 -15 -13 -4 -23 -5 -23 -1 0 11 45 24 80 23 l35
0 -35 -7z m288 -127 c-3 -3 -35 -12 -72 -19 -36 -8 -89 -25 -118 -39 -55 -27
-81 -28 -30 -2 33 17 125 52 157 59 30 7 69 8 63 1z m-221 -30 c-4 -4 -31 -17
-60 -29 -60 -24 -127 -71 -127 -89 0 -13 -55 -76 -66 -76 -5 0 -3 5 4 12 7 7
12 20 12 29 0 37 109 118 193 144 51 16 52 17 44 9z m827 -13 c16 -18 85 -220
86 -251 0 -34 -29 19 -65 115 -20 55 -45 109 -56 121 -10 11 -19 23 -19 27 0
15 38 6 54 -12z m-1034 -14 c0 -2 -16 -19 -36 -38 -26 -24 -33 -28 -25 -12 12
23 61 64 61 50z m435 -27 c-50 -19 -83 -25 -72 -14 10 10 81 33 102 33 11 0
-2 -9 -30 -19z m-129 -29 c-3 -4 -25 -11 -48 -15 -65 -10 -126 -42 -140 -70
-6 -15 -9 -29 -6 -32 3 -3 33 8 67 25 74 38 92 40 31 5 -25 -15 -68 -49 -97
-77 -50 -48 -53 -50 -82 -38 -16 7 -37 21 -47 32 -16 18 -15 20 10 54 15 19
33 35 40 35 6 0 28 12 47 26 46 35 66 42 141 49 34 4 65 9 67 11 8 8 22 4 17
-5z m313 -5 c-2 -2 -26 -6 -54 -9 -32 -4 -43 -3 -30 3 19 8 93 14 84 6z m-216
-55 c-29 -16 -70 -42 -90 -59 -61 -47 -103 -65 -103 -42 0 5 19 18 43 29 23
11 71 38 106 61 36 22 72 40 80 40 9 0 -8 -13 -36 -29z m306 -5 c-7 -7 -109
-44 -109 -40 0 7 83 44 99 44 8 0 12 -2 10 -4z m297 -53 c-3 -3 -13 -3 -22 1
-13 5 -14 9 -3 22 11 14 13 14 22 -1 5 -9 6 -19 3 -22z m-507 -22 c-53 -35
-115 -98 -106 -107 3 -4 23 7 44 23 42 33 133 88 133 80 0 -3 -30 -24 -67 -48
-37 -24 -93 -70 -124 -101 -80 -82 -107 -75 -51 13 32 50 110 122 162 150 54
28 59 22 9 -10z m-149 -61 c-29 -32 -64 -67 -79 -76 -14 -9 -23 -13 -19 -8 15
17 143 144 146 144 2 0 -20 -27 -48 -60z m490 26 c0 -1 -22 -17 -50 -34 -61
-38 -65 -35 -8 7 38 28 58 37 58 27z m-296 -69 c-33 -37 -102 -83 -111 -74 -4
4 142 124 146 121 2 -2 -14 -23 -35 -47z m-904 28 c0 -2 -19 -14 -42 -26 -24
-12 -65 -38 -93 -58 -27 -19 -45 -30 -41 -22 9 14 156 111 169 111 4 0 7 -2 7
-5z m1060 -13 c-60 -40 -98 -88 -115 -145 -9 -31 -24 -61 -33 -65 -21 -11 -74
-1 -79 14 -5 16 89 107 171 165 38 27 72 49 75 48 3 0 -5 -8 -19 -17z m187
-32 c-19 -16 -39 -30 -43 -30 -11 1 57 60 68 60 5 0 -7 -13 -25 -30z m619 8
c19 -23 19 -23 -1 -7 -11 10 -29 19 -40 22 -19 4 -19 5 1 6 11 0 29 -9 40 -21z
m-453 -5 c-7 -2 -21 -2 -30 0 -10 3 -4 5 12 5 17 0 24 -2 18 -5z m-1135 -78
c44 -42 95 -95 113 -118 19 -24 -13 2 -76 62 -61 58 -117 110 -125 118 -8 7
-10 13 -4 13 6 0 47 -34 92 -75z m1071 72 c-14 -13 -69 -34 -69 -28 0 9 39 29
59 30 8 1 12 -1 10 -2z m-280 -59 c-28 -29 -69 -77 -91 -106 -22 -30 -42 -51
-45 -48 -8 8 70 107 127 160 67 63 73 58 9 -6z m76 6 c-40 -59 -32 -83 13 -41
l25 22 -22 -30 c-11 -17 -29 -53 -39 -80 -16 -45 -21 -50 -51 -53 -18 -2 -38
2 -46 8 -10 8 -16 7 -24 -7 -10 -17 -10 -17 -11 0 0 10 17 39 38 64 46 56 134
153 138 153 2 0 -8 -16 -21 -36z m-647 -23 c15 -10 44 -24 64 -30 21 -7 41
-17 44 -23 8 -12 -34 -95 -52 -102 -36 -14 -144 52 -144 87 0 14 48 87 56 87
3 0 18 -8 32 -19z m352 12 c-1 -5 -12 -21 -25 -38 -30 -36 -34 -19 -4 19 21
26 29 32 29 19z m980 -53 l25 -22 -36 21 c-20 12 -47 21 -60 21 l-24 1 25 13
c20 12 26 12 35 1 5 -8 21 -23 35 -35z m-478 18 c-15 -15 -16 -95 -1 -100 7
-2 5 -9 -5 -17 -14 -12 -16 -8 -16 43 0 55 15 104 28 92 3 -4 0 -12 -6 -18z
m288 -17 c-8 -5 -31 -11 -50 -15 l-35 -6 35 14 c41 17 75 21 50 7z m1372 -33
c29 -37 30 -41 8 -25 -42 30 -89 51 -97 44 -4 -4 4 -15 17 -24 39 -28 60 -52
60 -70 0 -13 -7 -10 -25 14 -19 24 -36 33 -70 39 -53 7 -57 24 -12 47 55 27
81 22 119 -25z m-1834 -17 c-34 -50 -49 -61 -28 -19 12 22 50 68 57 68 2 0
-12 -22 -29 -49z m-997 22 c13 -16 12 -17 -3 -4 -17 13 -22 21 -14 21 2 0 10
-8 17 -17z m3074 -3 c21 -9 -14 -13 -132 -14 -77 -1 -65 12 15 17 37 2 74 4
82 4 8 1 24 -2 35 -7z m-893 -17 c9 -10 21 -29 27 -43 l12 -25 -20 23 c-10 12
-24 22 -30 22 -13 0 -31 -33 -46 -84 l-11 -38 -18 27 c-18 27 -17 29 8 81 28
58 51 68 78 37z m-1681 -13 c24 -11 54 -20 67 -20 12 0 41 -13 63 -30 23 -16
58 -32 78 -36 58 -9 66 -13 53 -26 -8 -8 -21 -9 -47 -1 -44 14 -59 -3 -16 -18
17 -6 31 -15 31 -21 0 -10 -23 -5 -79 18 -44 18 -47 18 -27 -5 10 -11 31 -23
47 -26 16 -4 29 -11 29 -16 0 -15 -32 -3 -97 37 -32 19 -88 44 -125 55 -38 12
-68 23 -68 25 0 8 40 84 44 84 2 0 23 -9 47 -20z m579 -31 c0 -14 -48 -41 -60
-34 -7 4 -3 17 11 36 17 24 24 27 35 18 8 -6 14 -15 14 -20z m388 -6 c28 -13
52 -29 52 -35 0 -5 -17 1 -37 13 -20 13 -60 31 -88 41 -38 14 -42 16 -15 12
19 -4 59 -17 88 -31z m-1366 -42 c17 -18 8 -14 -32 14 -73 51 -84 63 -33 35
24 -13 53 -35 65 -49z m2529 27 c-19 -44 -35 -153 -36 -246 0 -28 -3 -52 -6
-52 -3 0 -15 14 -28 31 l-23 30 27 77 c14 42 30 96 35 119 10 43 29 83 42 83
4 0 -1 -19 -11 -42z m-789 12 c24 -11 62 -24 86 -30 28 -7 63 -29 100 -62 62
-56 76 -76 46 -64 -11 5 -36 10 -56 13 -21 3 -43 12 -49 19 -18 22 -30 16 -23
-11 9 -37 -10 -30 -41 15 -15 22 -49 60 -76 85 -67 63 -64 71 13 35z m-601
-25 c-43 -39 -51 -42 -51 -18 0 26 31 53 62 53 l28 0 -39 -35z m88 -8 c-30
-13 -66 -31 -79 -40 -14 -9 -29 -17 -34 -17 -15 0 85 62 114 71 53 16 52 7 -1
-14z m2096 7 c22 -3 96 -7 164 -9 68 -3 140 -9 160 -15 20 -5 50 -10 66 -10
17 -1 48 -8 70 -16 22 -9 63 -21 91 -29 28 -7 62 -19 75 -28 13 -8 40 -20 60
-26 19 -6 65 -38 101 -70 45 -40 112 -82 209 -132 126 -66 153 -85 241 -168
116 -111 132 -151 21 -57 -42 36 -99 82 -127 101 -48 33 -361 183 -416 200
-14 4 -74 26 -135 50 -188 72 -441 153 -642 205 -50 13 -57 23 -10 15 17 -3
50 -8 72 -11z m-3880 -12 c-3 -3 -11 0 -18 7 -9 10 -8 11 6 5 10 -3 15 -9 12
-12z m867 -22 c121 -37 361 -173 373 -211 4 -12 -4 -32 -24 -56 -16 -21 -42
-62 -56 -90 -14 -29 -44 -74 -66 -99 -31 -36 -39 -52 -35 -70 5 -17 2 -24 -9
-24 -8 0 -15 7 -15 15 0 19 94 200 126 242 13 17 24 34 24 38 0 3 -33 22 -72
40 -40 19 -89 43 -108 54 -19 11 -51 23 -71 26 -41 6 -112 62 -135 106 -8 16
-19 29 -24 29 -12 0 -4 -39 22 -99 10 -24 17 -46 14 -48 -6 -6 -116 69 -116
79 0 13 31 61 49 76 21 17 49 15 123 -8z m613 -7 c24 -29 24 -53 -1 -32 -8 6
-23 9 -35 6 -13 -4 -18 -1 -15 6 3 7 9 20 12 30 8 23 11 22 39 -10z m105 7 c0
-15 -7 -20 -27 -20 l-28 0 25 20 c31 24 30 24 30 0z m594 -12 c25 -8 46 -24
58 -45 11 -17 30 -39 44 -47 28 -19 32 -36 8 -36 -9 0 -22 -8 -29 -17 -11 -15
-14 -15 -40 5 -32 26 -70 30 -61 7 3 -8 9 -22 12 -30 4 -9 1 -15 -9 -15 -8 0
-20 7 -27 15 -14 17 -40 20 -40 5 0 -17 -25 -11 -37 10 -7 10 -31 24 -53 31
-54 16 -53 39 3 40 23 1 53 4 66 8 l24 6 -28 33 c-32 39 -26 40 32 7 29 -18
43 -22 43 -13 0 7 -9 19 -20 26 -25 15 -26 36 -2 29 9 -4 35 -12 56 -19z
m-240 0 c-4 -7 -23 -35 -41 -62 -18 -26 -33 -52 -33 -57 0 -10 -40 -33 -46
-27 -2 3 -7 18 -10 35 -6 29 -2 34 62 77 75 50 79 52 68 34z m1066 -39 c-20
-43 -20 -43 -15 -10 3 19 10 40 16 48 21 24 20 7 -1 -38z m650 -9 c0 -29 -29
-114 -36 -107 -3 2 3 20 11 40 20 49 19 56 -12 63 l-26 7 22 18 c29 23 41 17
41 -21z m-2998 -16 c-6 -31 -13 -40 -37 -47 -68 -20 -159 -73 -226 -133 -63
-57 -99 -72 -99 -42 0 17 142 148 212 194 58 39 146 78 156 69 1 -1 -1 -19 -6
-41z m669 31 c33 6 41 3 73 -29 34 -35 38 -36 109 -36 66 0 79 -3 121 -31 l48
-32 -46 -20 -46 -20 -41 27 c-39 26 -69 29 -69 6 0 -16 -25 -12 -53 10 -16 13
-27 16 -29 9 -6 -19 -79 12 -89 38 -7 18 -13 21 -48 16 -29 -4 -41 -2 -41 7 0
9 18 11 62 9 77 -5 92 15 18 24 -56 7 -73 14 -65 27 3 5 17 5 32 -1 15 -5 44
-7 64 -4z m469 10 c0 -13 -65 -36 -87 -30 -32 8 -27 13 23 21 21 3 41 8 43 10
6 6 21 5 21 -1z m940 -76 c19 -15 63 -40 97 -54 34 -15 64 -33 67 -40 3 -8
-15 -20 -51 -34 -74 -28 -107 -27 -127 4 -10 14 -28 31 -42 37 -27 12 -30 32
-13 91 11 41 12 41 69 -4z m-795 -19 c3 -6 -1 -7 -9 -4 -18 7 -21 14 -7 14 6
0 13 -4 16 -10z m540 -10 c-3 -5 -12 -10 -18 -10 -7 0 -6 4 3 10 19 12 23 12
15 0z m-495 -10 c8 -5 11 -10 5 -10 -5 0 -17 5 -25 10 -8 5 -10 10 -5 10 6 0
17 -5 25 -10z m88 -54 c23 -16 42 -30 42 -33 0 -7 -55 27 -85 53 -34 29 -20
23 43 -20z m-777 1 c12 -22 12 -22 -10 -3 -11 11 -21 23 -21 28 0 14 19 -1 31
-25z m669 -21 c0 -39 16 -55 90 -92 49 -24 116 -69 145 -97 13 -13 -5 -2 -76
43 -31 20 -91 51 -135 70 -43 18 -80 34 -80 34 -1 1 -5 15 -8 31 -6 27 -3 32
21 41 37 14 43 9 43 -30z m360 39 c0 -2 -13 -11 -30 -20 -38 -19 -40 -11 -2 9
31 17 32 18 32 11z m200 -11 c-14 -16 -80 -47 -87 -41 -3 3 83 53 96 56 2 1
-2 -6 -9 -15z m-2630 -4 c12 -8 11 -10 -7 -10 -13 0 -23 5 -23 10 0 13 11 13
30 0z m956 -96 c62 -30 72 -42 17 -19 -68 28 -163 97 -163 118 0 5 21 -10 46
-32 26 -22 71 -53 100 -67z m954 77 c12 -24 13 -101 1 -101 -5 0 -7 8 -4 18 2
10 -2 37 -10 60 -15 43 -6 58 13 23z m1174 -13 c28 -12 32 -21 42 -83 3 -22
11 -46 16 -52 7 -9 7 -13 0 -13 -5 0 -15 14 -21 30 -14 42 -29 37 -29 -11 -1
-23 -3 -44 -6 -47 -3 -3 -6 9 -6 27 0 25 -4 32 -14 28 -28 -11 -96 -57 -96
-66 0 -4 12 -14 28 -21 15 -7 22 -15 15 -17 -7 -2 -21 1 -33 7 -35 19 -21 50
40 87 70 42 81 64 52 103 -32 43 -30 48 12 28z m-1939 -57 l30 -11 -28 5 c-31
6 -97 45 -97 58 0 4 15 -3 33 -16 17 -14 46 -30 62 -36z m249 43 c10 -26 7
-74 -5 -74 -5 0 -7 4 -4 10 3 5 2 26 -4 45 -9 34 1 50 13 19z m1396 9 c0 -3
-7 -14 -16 -24 -31 -34 -29 -92 5 -164 35 -76 22 -82 -26 -11 -28 40 -33 58
-33 105 0 63 19 101 51 101 10 0 19 -3 19 -7z m240 -24 c0 -5 -4 -7 -10 -4 -5
3 -27 -3 -49 -15 -57 -28 -73 -25 -20 4 47 26 79 32 79 15z m1061 -51 c22 -10
59 -34 83 -52 37 -28 155 -80 261 -115 59 -19 -4 -11 -71 10 -129 39 -370 171
-382 208 -3 10 7 7 32 -9 21 -12 55 -31 77 -42z m-2845 44 c-28 -45 -76 -112
-76 -106 0 14 64 114 73 114 4 0 6 -4 3 -8z m1260 -24 l29 -33 -30 25 c-16 14
-34 28 -39 32 -6 5 -6 8 0 8 6 0 23 -15 40 -32z m-1491 12 c3 -5 33 -19 67
-32 34 -12 56 -24 50 -26 -13 -4 -142 53 -142 62 0 10 18 7 25 -4z m1949 -71
c-10 -11 -26 -18 -35 -16 -9 2 -25 0 -35 -6 -17 -9 -18 -9 -5 7 8 9 21 16 30
15 31 -3 40 1 47 24 4 13 9 17 12 9 2 -7 -4 -22 -14 -33z m-1488 -40 c-36 -39
-63 -75 -60 -80 10 -17 59 4 100 41 50 46 68 56 117 63 31 5 37 4 28 -7 -6 -8
-24 -16 -40 -19 -16 -4 -52 -27 -81 -52 -44 -39 -56 -45 -96 -45 -57 0 -93
-18 -138 -72 -20 -23 -36 -37 -36 -32 0 16 46 75 98 125 26 26 52 52 57 58 10
12 106 89 113 90 2 1 -26 -31 -62 -70z m955 56 c63 -22 128 -90 135 -141 5
-34 4 -37 -8 -22 -7 9 -20 30 -30 47 -21 38 -84 79 -144 95 -26 7 -49 17 -52
24 -5 17 45 15 99 -3z m-2017 -13 c4 -7 -103 -164 -135 -197 -6 -6 -16 -3 -27
8 -14 15 -15 19 -3 26 8 5 20 7 28 4 8 -3 13 2 13 14 0 21 95 153 110 153 5 0
11 -4 14 -8z m2260 -107 c4 -11 -2 -3 -14 18 -11 20 -26 37 -33 38 -6 0 -3 4
8 8 16 7 21 3 26 -18 4 -14 10 -35 13 -46z m-1523 14 c-11 -24 -20 -39 -20
-33 -1 16 29 87 35 82 2 -3 -4 -25 -15 -49z m1263 20 c14 -17 26 -38 26 -47
-1 -11 -7 -6 -17 13 -8 17 -25 38 -37 47 -11 10 -16 18 -9 18 6 0 23 -14 37
-31z m-494 -32 c0 -5 -8 -6 -17 -2 -10 3 -31 9 -48 12 -27 6 -29 5 -16 -11 19
-22 8 -31 -13 -10 -28 28 -4 43 49 31 25 -6 45 -15 45 -20z m-170 14 c0 -5
-16 -12 -35 -15 -20 -4 -56 -16 -80 -26 -25 -11 -45 -16 -45 -11 0 10 66 40
111 51 47 11 49 11 49 1z m318 -40 c11 -6 33 -28 49 -48 51 -66 47 -70 -9 -11
-36 38 -66 60 -86 64 -18 4 -32 10 -32 15 0 9 46 -3 78 -20z m1317 -11 c-3 -5
-17 -10 -31 -10 -14 0 -22 4 -19 10 3 6 17 10 31 10 14 0 22 -4 19 -10z m70 0
c-3 -5 -12 -10 -20 -10 -8 0 -17 5 -20 10 -4 6 5 10 20 10 15 0 24 -4 20 -10z
m-1008 -22 c-3 -8 -6 -5 -6 6 -1 11 2 17 5 13 3 -3 4 -12 1 -19z m-2613 -4
c25 -4 46 -11 46 -17 0 -6 -14 -7 -37 -2 -21 4 -50 8 -65 8 -16 0 -28 4 -28 8
0 11 21 11 84 3z m2831 -14 c10 -11 16 -20 13 -20 -3 0 -13 9 -23 20 -10 11
-16 20 -13 20 3 0 13 -9 23 -20z m475 -14 c5 -14 26 -36 47 -50 21 -14 34 -26
30 -26 -6 0 -103 63 -116 75 -5 6 10 25 20 25 5 0 14 -11 19 -24z m-1665 -2
c-22 -8 -49 -18 -60 -21 -11 -3 -44 -26 -72 -50 -62 -52 -70 -41 -15 18 38 41
101 67 162 68 20 0 17 -3 -15 -15z m475 -24 c30 -43 18 -37 -16 7 -15 20 -23
33 -16 29 6 -3 21 -20 32 -36z m3056 15 c76 -26 198 -84 178 -85 -6 0 -36 11
-66 24 -78 34 -151 56 -243 71 l-80 13 68 1 c49 1 90 -6 143 -24z m-3362 -11
c48 -16 48 -17 41 -53 -4 -20 -8 -37 -9 -39 -2 -1 -29 9 -60 24 -67 31 -69 42
-3 17 25 -9 50 -14 54 -10 12 13 -11 40 -44 51 -33 12 -53 26 -36 26 5 0 31
-7 57 -16z m193 0 c-3 -3 -12 -4 -19 -1 -8 3 -5 6 6 6 11 1 17 -2 13 -5z m77
-32 c14 -21 26 -45 26 -53 0 -7 -10 4 -23 26 -12 22 -34 45 -47 52 -23 12 -23
13 -4 13 13 0 31 -14 48 -38z m-1664 21 c0 -5 -17 -33 -38 -65 -20 -31 -49
-77 -64 -102 -26 -43 -48 -60 -48 -36 0 6 17 36 39 68 21 31 50 76 65 100 23
37 46 55 46 35z m1823 -55 c6 -20 5 -20 -18 2 -13 12 -26 31 -28 42 -6 20 -5
20 18 -2 13 -12 26 -31 28 -42z m592 32 c10 -11 16 -20 13 -20 -3 0 -13 9 -23
20 -10 11 -16 20 -13 20 3 0 13 -9 23 -20z m-1484 -82 c1 -65 -2 -93 -13 -110
-9 -13 -19 -20 -23 -16 -4 4 -3 13 3 20 5 7 13 55 17 106 4 51 9 91 11 90 1
-2 4 -42 5 -90z m214 52 c-10 -12 -15 -26 -11 -37 4 -9 4 -14 0 -11 -3 4 -21
0 -38 -8 l-31 -15 28 21 c15 12 27 28 27 35 0 8 8 19 18 24 25 15 27 13 7 -9z
m681 -87 c-5 -5 -106 94 -106 103 0 5 25 -16 55 -46 30 -29 53 -55 51 -57z
m-211 27 c-23 -25 -53 -22 -109 11 -53 31 -37 35 21 4 58 -30 87 -25 80 12 -4
23 -3 23 11 9 14 -14 14 -17 -3 -36z m-321 -65 c22 -16 55 -34 75 -41 30 -11
32 -13 12 -14 -32 0 -116 53 -163 103 -21 22 -38 42 -38 45 0 3 17 -10 38 -29
20 -19 55 -48 76 -64z m92 66 c5 -5 36 -14 69 -20 32 -6 64 -16 70 -23 7 -8 5
-9 -10 -4 -34 13 -147 27 -167 21 -23 -8 -23 4 0 21 21 16 25 17 38 5z m350
-42 c-18 -14 -26 -28 -23 -40 3 -11 1 -19 -4 -19 -5 0 -9 7 -9 15 0 9 -7 18
-16 22 -11 4 -5 11 23 24 52 24 61 23 29 -2z m-668 -81 c49 -44 80 -60 147
-78 28 -7 54 -16 59 -21 18 -16 -134 30 -168 51 -44 26 -116 107 -116 129 0
10 7 4 18 -14 11 -16 37 -47 60 -67z m886 42 c7 0 23 -12 37 -27 25 -27 16
-24 -36 11 -16 12 -31 21 -33 22 -1 1 1 10 5 20 7 17 8 17 11 -3 2 -13 9 -23
16 -23z m3226 -1 c41 -22 64 -37 50 -33 -41 11 -158 74 -135 73 6 0 44 -18 85
-40z m-4060 -4 c18 -13 37 -22 42 -19 11 7 38 -14 38 -29 0 -7 -4 -7 -12 1 -7
7 -22 12 -33 12 -12 0 -34 14 -50 30 -35 36 -30 38 15 5z m737 3 c13 -12 23
-31 23 -43 0 -11 8 -32 17 -45 16 -25 16 -25 -3 -7 -12 9 -28 17 -37 17 -19 0
-23 15 -7 25 18 11 10 35 -15 47 -19 9 -29 8 -50 -6 -31 -20 -34 -3 -3 18 30
21 47 20 75 -6z m-314 -31 c13 12 7 -13 -5 -26 -11 -11 -9 -13 9 -8 13 3 26 1
29 -4 3 -5 11 -9 17 -8 7 1 20 -1 30 -6 11 -4 23 -3 29 3 18 18 -11 45 -39 37
-13 -3 -23 -1 -23 5 0 5 5 10 12 10 6 0 20 8 31 18 17 14 21 15 25 3 3 -8 16
-25 30 -38 26 -24 70 -27 103 -7 11 6 11 4 0 -9 -11 -14 -12 -23 -2 -44 16
-35 9 -38 -19 -8 -31 33 -44 32 -36 -5 7 -36 -1 -39 -14 -5 -12 32 -21 32 -48
-5 -25 -33 -42 -39 -42 -14 0 11 -5 14 -16 10 -10 -4 -30 4 -50 19 -35 27 -50
32 -38 14 5 -8 -1 -10 -20 -7 -23 5 -26 3 -20 -16 6 -20 5 -20 -12 -4 -17 17
-16 18 10 39 27 21 28 29 11 74 -8 19 -6 18 17 -3 13 -12 28 -19 31 -15z
m1632 -5 c-3 -3 -11 0 -18 7 -9 10 -8 11 6 5 10 -3 15 -9 12 -12z m136 -23
c23 -19 23 -20 2 -10 -12 6 -33 11 -47 11 -14 0 -26 5 -26 10 0 18 47 11 71
-11z m-3476 1 c-3 -5 -23 -9 -43 -9 l-37 1 30 8 c44 11 57 11 50 0z m-112 -7
c-7 -2 -21 -2 -30 0 -10 3 -4 5 12 5 17 0 24 -2 18 -5z m1184 -145 c-2 -29 -3
-6 -3 52 0 58 1 81 3 53 2 -29 2 -77 0 -105z m463 100 c22 -45 27 -98 9 -98
-6 0 -8 8 -4 19 3 11 1 22 -5 26 -5 3 -10 18 -10 32 0 15 -7 35 -17 45 -9 10
-11 18 -5 18 6 0 21 -19 32 -42z m651 -9 c11 -16 35 -37 52 -46 18 -8 45 -27
61 -40 21 -18 36 -22 56 -18 16 3 31 1 35 -4 4 -7 -7 -11 -30 -11 -28 0 -58
14 -118 53 -45 30 -94 61 -109 70 -37 23 -35 35 2 29 19 -3 38 -15 51 -33z
m-513 -69 c26 0 87 -29 78 -37 -3 -3 -27 1 -53 10 -26 8 -61 13 -77 10 -24 -5
-28 -3 -23 10 3 9 2 19 -3 22 -6 4 -10 10 -10 15 0 6 15 1 33 -10 17 -11 42
-20 55 -20z m-408 -40 c0 -4 15 -17 33 -29 17 -11 27 -21 22 -21 -14 0 -129
97 -134 112 -2 7 15 -3 37 -21 23 -18 42 -36 42 -41z m605 39 c4 -5 31 -21 61
-34 30 -13 54 -29 54 -35 0 -6 -12 -2 -27 9 -16 11 -38 22 -50 26 -19 5 -23 2
-23 -15 0 -19 -4 -21 -32 -15 -42 9 -65 30 -25 23 33 -6 42 4 27 32 -11 21 3
30 15 9z m-221 -45 c32 -12 14 -19 -57 -21 l-72 -1 55 12 c30 7 56 14 57 15 1
0 8 -2 17 -5z m-422 -96 c54 -54 56 -58 9 -24 -36 26 -81 84 -80 100 0 6 6 2
12 -9 7 -11 33 -41 59 -67z m1263 43 c87 -39 202 -204 211 -303 l5 -53 -20 57
c-10 32 -33 80 -51 108 -33 51 -120 132 -177 165 -33 19 -45 45 -20 45 6 0 30
-9 52 -19z m-592 -12 c44 -12 55 -32 57 -110 2 -77 2 -78 -19 -34 -24 53 -85
93 -169 111 -67 14 -149 10 -184 -8 -12 -5 -18 -5 -18 1 0 12 31 30 69 42 39
11 221 10 264 -2z m-140 -76 c38 -19 20 -30 -25 -14 -17 6 -60 11 -95 11 -40
0 -62 4 -58 10 10 17 142 12 178 -7z m-213 -11 c0 -5 -18 -23 -40 -41 -48 -39
-51 -35 -7 12 32 35 47 44 47 29z m119 -22 c79 -13 173 -56 229 -105 52 -45
48 -59 -5 -17 -47 37 -122 62 -216 72 -40 4 -61 8 -49 9 33 2 23 22 -19 37
-43 16 -22 17 60 4z m-21 -126 c26 -19 58 -49 71 -66 14 -17 43 -39 65 -49 33
-15 36 -19 17 -19 -24 0 -45 15 -150 111 -72 66 -73 77 -3 23z m220 -167 c-16
-6 -28 -15 -28 -20 0 -4 -4 -5 -10 -2 -18 11 -10 24 18 28 44 7 48 5 20 -6z
m51 -89 c26 -24 65 -58 86 -76 l40 -33 -34 18 c-37 19 -162 132 -147 133 5 0
30 -19 55 -42z m279 -169 c34 -12 61 -24 58 -26 -7 -7 -85 17 -142 44 -65 30
-84 52 -22 24 24 -11 71 -29 106 -42z"/>
<path d="M3050 1911 c0 -19 45 -41 95 -47 51 -6 77 -17 136 -62 20 -15 50 -37
67 -50 17 -12 33 -18 36 -13 4 5 2 12 -4 16 -5 3 -10 16 -10 29 0 16 -11 27
-42 41 -23 10 -70 36 -105 58 -52 32 -66 37 -78 27 -14 -12 -42 -10 -77 5 -11
4 -18 3 -18 -4z"/>
<path d="M9380 3841 c-29 -5 -35 -10 -33 -29 2 -16 -3 -22 -16 -22 -14 0 -20
-10 -25 -47 -17 -115 -6 -133 77 -133 l62 0 -2 -148 c-4 -422 -3 -612 6 -633
10 -28 -1 -418 -13 -437 -6 -10 -23 -11 -62 -6 l-55 6 6 -78 c8 -99 13 -124
25 -124 5 0 7 6 4 14 -6 17 42 31 59 18 7 -5 57 -13 112 -16 55 -4 126 -12
159 -17 56 -10 93 -4 48 8 -41 10 -22 22 40 25 61 3 63 4 68 33 12 65 3 81
-58 100 -31 9 -82 20 -114 23 l-58 5 0 234 c0 178 3 234 13 237 6 2 71 11 142
21 99 12 161 27 260 62 210 73 230 85 280 162 79 123 103 175 125 274 l22 97
53 0 c42 0 55 -4 59 -17 18 -57 47 -694 42 -893 l-4 -135 -81 3 -81 4 0 -28
c0 -27 -1 -27 -15 -8 -13 17 -14 13 -15 -48 0 -36 3 -73 6 -81 4 -13 48 -14
302 -10 167 2 301 9 307 14 5 5 11 40 13 77 6 96 -6 107 -107 98 -42 -3 -93
-11 -114 -17 -20 -5 -41 -8 -46 -5 -4 3 -4 26 2 50 9 41 6 146 -17 564 -2 34
0 65 5 68 5 3 9 83 9 179 0 168 1 174 22 189 12 9 36 16 53 16 47 0 104 19
114 38 10 20 0 97 -17 128 -6 12 -23 25 -37 28 -14 4 -25 12 -25 20 0 11 -12
10 -67 -1 -38 -8 -155 -17 -261 -20 -160 -5 -195 -3 -210 9 -23 20 -207 74
-317 93 -49 9 -119 23 -155 32 -113 26 -400 40 -490 24z m290 -31 c0 -6 -40
-10 -99 -10 -56 0 -103 4 -106 10 -4 6 32 10 99 10 64 0 106 -4 106 -10z m90
0 c0 -5 -11 -10 -25 -10 -14 0 -25 5 -25 10 0 6 11 10 25 10 14 0 25 -4 25
-10z m-270 -100 c0 -5 -9 -10 -21 -10 -11 0 -17 5 -14 10 3 6 13 10 21 10 8 0
14 -4 14 -10z m176 -20 c8 0 14 -4 14 -10 0 -5 -20 -10 -45 -10 -35 0 -45 4
-45 16 0 13 7 15 31 10 17 -3 38 -6 45 -6z m-98 -15 c1 -1 -3 -7 -10 -12 -16
-13 -62 2 -53 17 5 8 51 4 63 -5z m598 0 c16 -12 16 -14 3 -15 -9 0 -22 7 -29
15 -16 19 0 19 26 0z m-106 -15 c0 -5 -4 -10 -10 -10 -5 0 -10 5 -10 10 0 6 5
10 10 10 6 0 10 -4 10 -10z m-570 -10 c0 -5 -4 -10 -9 -10 -6 0 -13 5 -16 10
-3 6 1 10 9 10 9 0 16 -4 16 -10z m463 -39 c150 -47 238 -91 281 -139 40 -46
-14 -217 -86 -273 -45 -35 -176 -113 -213 -126 -39 -15 -236 -53 -273 -53 -29
0 -29 1 -35 73 -3 39 -13 122 -21 182 -18 131 -21 351 -5 361 14 8 101 21 156
23 25 1 103 -18 196 -48z m262 -22 c12 -19 -5 -23 -22 -6 -16 16 -16 17 -1 17
9 0 20 -5 23 -11z m95 1 c0 -5 -2 -10 -4 -10 -3 0 -8 5 -11 10 -3 6 -1 10 4
10 6 0 11 -4 11 -10z m-68 -72 c-9 -9 -15 -9 -24 0 -9 9 -7 12 12 12 19 0 21
-3 12 -12z m198 -52 c0 -3 -4 -8 -10 -11 -5 -3 -10 -1 -10 4 0 6 5 11 10 11 6
0 10 -2 10 -4z m243 -36 c-3 -11 -7 -20 -9 -20 -2 0 -4 9 -4 20 0 11 4 20 9
20 5 0 7 -9 4 -20z m-433 -209 c0 -5 -7 -14 -15 -21 -16 -14 -18 -10 -9 14 6
17 24 22 24 7z m-180 -115 c0 -3 -4 -8 -10 -11 -5 -3 -10 -1 -10 4 0 6 5 11
10 11 6 0 10 -2 10 -4z m-100 -76 c-20 -13 -63 -13 -55 0 3 6 21 10 38 10 24
0 28 -3 17 -10z m235 1 c-7 -12 -64 -25 -72 -17 -7 7 35 24 60 25 10 1 16 -3
12 -8z m-245 -71 c0 -5 -2 -10 -4 -10 -3 0 -8 5 -11 10 -3 6 -1 10 4 10 6 0
11 -4 11 -10z m-114 -16 c-39 -7 -72 -11 -74 -9 -10 10 46 24 93 23 l50 0 -69
-14z m-156 -4 c0 -5 -12 -10 -26 -10 -14 0 -23 4 -19 10 3 6 15 10 26 10 10 0
19 -4 19 -10z m-153 -397 c-2 -16 -4 -5 -4 22 0 28 2 40 4 28 2 -13 2 -35 0
-50z m0 -85 c-3 -8 -6 -5 -6 6 -1 11 2 17 5 13 3 -3 4 -12 1 -19z m-120 -124
c-3 -3 -12 -4 -19 -1 -8 3 -5 6 6 6 11 1 17 -2 13 -5z m1565 -16 c-7 -7 -12
-8 -12 -2 0 14 12 26 19 19 2 -3 -1 -11 -7 -17z m-1329 -35 c-7 -2 -21 -2 -30
0 -10 3 -4 5 12 5 17 0 24 -2 18 -5z m110 -30 c-7 -2 -21 -2 -30 0 -10 3 -4 5
12 5 17 0 24 -2 18 -5z"/>
<path d="M12546 3787 c-15 -11 -18 -47 -26 -362 -5 -193 -17 -431 -25 -530 -9
-99 -15 -223 -14 -275 4 -191 3 -197 -33 -209 -18 -6 -42 -18 -54 -25 -20 -14
-21 -17 -9 -81 7 -37 18 -72 24 -78 15 -15 162 -21 216 -10 44 10 59 37 25 46
-11 3 -20 13 -20 22 0 12 6 16 20 12 14 -4 20 0 21 11 4 45 -2 275 -6 283 -3
4 2 86 11 181 18 191 22 394 10 566 -5 74 -4 112 3 112 17 0 115 -159 211
-345 112 -218 227 -423 250 -450 28 -32 56 -95 74 -167 9 -37 30 -96 45 -130
16 -35 31 -71 35 -81 5 -16 17 -17 103 -15 l97 3 6 31 c10 47 -7 541 -30 870
-11 162 -23 339 -26 394 l-7 100 32 0 c43 0 98 24 105 47 3 10 2 34 -2 53 l-8
35 -178 3 c-123 2 -183 -1 -192 -9 -9 -8 -14 -33 -14 -75 l0 -64 44 0 c69 0
74 -5 66 -52 -5 -23 -6 -195 -3 -382 4 -289 3 -344 -9 -360 -9 -11 -20 -16
-27 -12 -16 10 -56 91 -106 216 -24 59 -60 134 -81 168 -22 33 -66 104 -99
157 -33 54 -90 136 -126 184 -36 48 -82 113 -103 144 -21 32 -48 64 -59 72
-26 18 -117 20 -141 2z m1011 -13 c-3 -3 -12 -4 -19 -1 -8 3 -5 6 6 6 11 1 17
-2 13 -5z m-897 -20 c0 -9 -5 -14 -12 -12 -18 6 -21 28 -4 28 9 0 16 -7 16
-16z m615 -54 c4 -6 -5 -10 -19 -10 -14 0 -26 5 -26 10 0 6 9 10 19 10 11 0
23 -4 26 -10z m85 -90 c0 -11 -4 -20 -10 -20 -5 0 -10 9 -10 20 0 11 5 20 10
20 6 0 10 -9 10 -20z m-724 -118 c-13 -12 -15 7 -8 59 l7 54 3 -54 c2 -29 1
-56 -2 -59z m67 56 c8 -55 -8 -54 -19 0 -4 19 -2 32 4 32 5 0 12 -15 15 -32z
m133 -175 c14 -29 24 -63 22 -75 -3 -18 -12 -5 -39 52 -20 41 -40 86 -43 100
l-7 25 21 -25 c12 -14 33 -49 46 -77z m97 -40 c23 -44 31 -77 18 -69 -11 7
-51 79 -51 91 0 15 21 1 33 -22z m11 -190 c60 -121 82 -181 45 -123 -35 55
-109 203 -109 217 0 27 11 10 64 -94z m146 -53 c24 -46 26 -63 5 -33 -17 24
-37 73 -30 73 3 0 14 -18 25 -40z m80 -170 c0 -23 -28 22 -35 56 -6 28 -6 28
14 -6 11 -19 20 -42 21 -50z m-100 -42 c0 -10 -2 -18 -6 -18 -6 0 -34 64 -34
77 1 16 40 -43 40 -59z m-501 -162 c-9 -8 -10 -7 -5 7 3 10 7 35 8 55 1 35 2
35 5 -7 3 -26 -1 -48 -8 -55z m601 -7 c0 -9 -4 -8 -15 1 -8 7 -15 19 -15 27 0
12 2 12 15 -1 8 -8 15 -20 15 -27z m230 -29 c0 -22 -4 -40 -10 -40 -11 0 -13
39 -4 64 10 26 14 19 14 -24z m-830 -29 c0 -11 -4 -23 -10 -26 -6 -4 -10 5
-10 19 0 14 5 26 10 26 6 0 10 -9 10 -19z m691 -173 c11 -21 11 -22 -4 -9 -10
7 -17 17 -17 22 0 15 9 10 21 -13z m-788 -95 c-7 -2 -19 -2 -25 0 -7 3 -2 5
12 5 14 0 19 -2 13 -5z m-13 -63 c0 -5 -11 -10 -25 -10 -14 0 -25 5 -25 10 0
6 11 10 25 10 14 0 25 -4 25 -10z m15 -70 c3 -5 -1 -10 -9 -10 -9 0 -16 5 -16
10 0 6 4 10 9 10 6 0 13 -4 16 -10z"/>
<path d="M7235 3774 c-11 -2 -45 -9 -75 -15 -82 -16 -221 -109 -250 -165 -8
-16 -31 -52 -51 -80 -21 -28 -43 -71 -49 -95 -6 -24 -31 -84 -56 -134 -58
-118 -82 -218 -96 -395 l-11 -145 38 -115 c58 -178 115 -289 180 -348 45 -42
71 -56 152 -83 95 -31 98 -32 197 -22 74 7 114 16 151 34 28 14 66 29 85 33
66 13 135 69 181 147 117 202 193 413 211 585 11 113 10 127 -16 284 -29 175
-42 207 -141 343 -45 61 -149 133 -220 152 -61 17 -194 28 -230 19z m299 -65
c15 -12 25 -23 22 -26 -5 -6 -63 24 -71 37 -11 18 22 11 49 -11z m-37 -35 c76
-40 102 -60 63 -49 -45 13 -140 57 -151 71 -21 25 17 16 88 -22z m-222 17
c-14 -12 -141 -53 -129 -41 18 18 89 49 114 50 14 0 20 -4 15 -9z m157 -93
c98 -51 180 -128 213 -200 13 -29 29 -91 35 -138 6 -47 18 -102 26 -123 14
-37 13 -42 -11 -91 -14 -28 -37 -99 -51 -156 -14 -58 -42 -150 -62 -205 -34
-93 -43 -106 -117 -183 -86 -90 -109 -106 -170 -117 -22 -4 -48 -15 -58 -23
-13 -12 -20 -13 -29 -4 -7 7 -20 12 -30 12 -10 0 -35 9 -55 20 -21 11 -50 20
-65 20 -28 0 -63 25 -156 114 -74 71 -82 104 -82 329 0 131 4 196 16 241 39
152 164 343 279 427 33 24 67 52 77 61 24 24 98 56 131 57 16 1 65 -18 109
-41z m-447 -74 c-56 -51 -81 -69 -83 -58 -4 15 106 123 137 135 37 15 21 -7
-54 -77z m155 52 c-20 -19 -60 -30 -60 -17 0 13 30 30 55 31 17 0 17 -2 5 -14z
m455 -20 c35 -15 47 -36 21 -36 -15 0 -77 49 -63 50 4 0 23 -7 42 -14z m123
-63 c5 -10 12 -37 16 -60 3 -23 8 -50 12 -60 3 -10 -11 13 -31 50 -33 63 -37
87 -15 87 5 0 13 -8 18 -17z m-813 -142 c-3 -6 -11 -11 -17 -11 -6 0 -6 6 2
15 14 17 26 13 15 -4z m865 -66 c0 -8 -2 -15 -4 -15 -2 0 -6 7 -10 15 -3 8 -1
15 4 15 6 0 10 -7 10 -15z m-900 -2 c-1 -5 -9 -24 -20 -43 -21 -38 -28 -18 -8
25 10 23 29 35 28 18z m900 -311 c0 -9 -5 -24 -10 -32 -7 -11 -10 -5 -10 23 0
23 4 36 10 32 6 -3 10 -14 10 -23z m41 -92 c-9 -23 -10 -23 -10 11 -1 20 2 39
7 43 11 12 14 -27 3 -54z m-125 -17 c-11 -11 -19 6 -11 24 8 17 8 17 12 0 3
-10 2 -21 -1 -24z m-31 -147 c-9 -31 -21 -58 -26 -61 -5 -4 -9 -4 -9 -1 0 13
30 144 37 161 16 40 15 -41 -2 -99z m-45 -110 c0 -55 -47 -130 -113 -182 -65
-50 -81 -38 -18 15 28 24 48 47 45 52 -3 5 4 23 16 39 12 17 26 46 31 65 11
40 39 48 39 11z m-810 -84 c0 -13 -3 -12 -20 3 -11 10 -20 28 -20 39 1 20 1
20 20 -3 11 -13 20 -30 20 -39z m784 -163 c-16 -17 -37 -35 -47 -41 -16 -8
-17 -7 -8 10 13 24 59 62 74 62 6 0 -2 -14 -19 -31z m-287 5 c-3 -3 -12 -4
-19 -1 -8 3 -5 6 6 6 11 1 17 -2 13 -5z m-217 -14 c0 -5 -7 -7 -15 -4 -8 4
-15 8 -15 10 0 2 7 4 15 4 8 0 15 -4 15 -10z m281 -64 c-12 -15 -60 -30 -68
-22 -3 2 12 13 34 24 41 22 53 21 34 -2z m-111 4 c0 -5 -15 -10 -34 -10 -19 0
-38 5 -41 10 -4 6 10 10 34 10 23 0 41 -4 41 -10z m195 -20 c3 -5 1 -10 -4
-10 -6 0 -11 5 -11 10 0 6 2 10 4 10 3 0 8 -4 11 -10z m-429 -32 c53 -17 92
-21 169 -20 l100 1 -55 -15 c-33 -9 -79 -13 -115 -10 -62 4 -169 36 -188 55
-17 17 12 14 89 -11z"/>
<path d="M8145 3760 c-248 -41 -246 -40 -240 -60 3 -11 0 -20 -10 -24 -13 -5
-14 -10 -5 -27 6 -11 9 -28 6 -36 -4 -9 1 -23 12 -33 17 -16 24 -16 96 -3 43
8 80 12 83 10 2 -3 8 -142 13 -309 5 -166 14 -393 20 -503 6 -110 10 -231 8
-270 l-3 -70 -55 -12 c-70 -15 -82 -31 -78 -113 l3 -65 170 -5 c157 -5 273 5
292 24 9 8 15 115 9 141 -5 18 -12 20 -64 17 -59 -4 -59 -4 -71 30 -7 18 -15
93 -18 166 -7 154 -2 167 76 177 25 4 70 13 100 20 37 10 60 11 73 4 10 -5 48
-67 84 -137 79 -155 118 -226 148 -272 13 -19 29 -65 36 -102 16 -78 16 -78
137 -78 45 0 94 -5 109 -11 21 -7 46 -6 101 6 80 18 80 17 66 99 -7 46 -34 60
-136 71 -85 8 -82 5 -267 269 -113 159 -138 201 -129 213 7 7 61 45 120 84
150 98 192 149 225 280 29 112 -7 230 -105 341 -23 26 -57 56 -75 67 -43 27
-280 88 -376 96 -41 4 -113 13 -159 21 -46 8 -84 13 -85 13 0 -1 -50 -9 -111
-19z m165 -36 c0 -2 -9 -4 -21 -4 -11 0 -18 4 -14 10 5 8 35 3 35 -6z m55 -54
c-3 -5 -22 -10 -41 -10 -19 0 -34 5 -34 10 0 6 18 10 41 10 24 0 38 -4 34 -10z
m160 -10 c4 -6 -7 -10 -25 -10 -18 0 -29 4 -25 10 3 6 15 10 25 10 10 0 22 -4
25 -10z m-570 -31 c0 -7 -8 -15 -17 -17 -18 -3 -25 18 -11 32 10 10 28 1 28
-15z m952 -50 c7 -6 13 -18 13 -26 0 -13 -50 19 -95 60 -14 12 65 -21 82 -34z
m-178 7 c86 -46 191 -179 191 -243 0 -66 -31 -137 -79 -181 -47 -44 -151 -102
-181 -102 -16 0 -132 -47 -173 -71 -11 -6 -53 -17 -95 -25 -69 -13 -78 -13
-88 1 -18 24 -27 192 -14 250 10 44 15 269 8 350 l-3 30 95 6 c170 11 301 5
339 -15z m-570 -33 c-1 -51 -16 -145 -18 -112 0 14 -4 54 -7 88 -6 52 -5 61
10 61 12 0 16 -9 15 -37z m121 -98 c0 -8 -4 -15 -10 -15 -5 0 -10 7 -10 15 0
8 5 15 10 15 6 0 10 -7 10 -15z m-80 -209 c-12 -12 -14 48 -2 109 6 37 7 34
10 -29 2 -39 -2 -74 -8 -80z m790 94 c0 -5 -4 -10 -10 -10 -5 0 -10 5 -10 10
0 6 5 10 10 10 6 0 10 -4 10 -10z m6 -178 c-4 -3 -11 -1 -17 5 -7 7 -6 19 3
39 l13 29 3 -34 c2 -18 1 -36 -2 -39z m-16 -42 c-11 -21 -22 -25 -33 -13 -9 9
12 33 30 33 11 0 11 -4 3 -20z m-75 -20 c-3 -5 -11 -10 -16 -10 -6 0 -7 5 -4
10 3 6 11 10 16 10 6 0 7 -4 4 -10z m-115 -40 c-34 -27 -63 -26 -31 0 13 11
31 20 40 20 12 0 10 -5 -9 -20z m-89 -50 c-13 -11 -33 -20 -45 -20 -17 1 -14
4 14 20 45 25 61 25 31 0z m-121 -50 c0 -5 -10 -10 -22 -9 -22 0 -22 1 -3 9
11 5 21 9 23 9 1 1 2 -3 2 -9z m-85 -20 c-3 -5 -14 -10 -23 -10 -15 0 -15 2
-2 10 20 13 33 13 25 0z m150 -15 c-16 -7 -32 -11 -35 -9 -7 8 24 24 45 23 15
0 13 -4 -10 -14z m29 -160 c3 -8 1 -15 -3 -15 -5 0 -11 7 -15 15 -3 8 -1 15 3
15 5 0 11 -7 15 -15z m-464 -274 c0 -6 -4 -13 -10 -16 -5 -3 -10 1 -10 9 0 9
5 16 10 16 6 0 10 -4 10 -9z m65 -111 c-5 -15 -10 -19 -17 -12 -5 5 -7 20 -3
32 5 15 10 19 17 12 5 -5 7 -20 3 -32z m-55 16 c0 -8 -4 -18 -10 -21 -5 -3
-10 3 -10 14 0 12 5 21 10 21 6 0 10 -6 10 -14z m730 -56 c0 -5 -5 -10 -11
-10 -5 0 -7 5 -4 10 3 6 8 10 11 10 2 0 4 -4 4 -10z m232 -12 c-6 -6 -16 -7
-22 -3 -9 6 -9 9 1 16 17 10 34 0 21 -13z m-752 -18 c0 -5 -5 -10 -11 -10 -5
0 -7 5 -4 10 3 6 8 10 11 10 2 0 4 -4 4 -10z m573 3 c-7 -2 -19 -2 -25 0 -7 3
-2 5 12 5 14 0 19 -2 13 -5z m217 -33 c0 -5 -14 -10 -31 -10 -17 0 -28 4 -24
10 3 6 17 10 31 10 13 0 24 -4 24 -10z"/>
<path d="M11685 3774 c-11 -2 -45 -9 -75 -15 -82 -16 -221 -109 -250 -165 -8
-16 -31 -52 -51 -80 -21 -28 -43 -71 -49 -95 -6 -24 -31 -84 -56 -134 -58
-118 -82 -218 -96 -395 l-11 -145 38 -115 c58 -178 115 -289 180 -348 45 -42
71 -56 152 -83 95 -31 98 -32 197 -22 74 7 114 16 151 34 28 14 66 29 85 33
66 13 135 69 181 147 117 202 193 413 211 585 11 113 10 127 -16 284 -29 175
-42 207 -141 343 -45 61 -149 133 -220 152 -61 17 -194 28 -230 19z m299 -65
c15 -12 25 -23 22 -26 -5 -6 -63 24 -71 37 -11 18 22 11 49 -11z m-37 -35 c76
-40 102 -60 63 -49 -45 13 -140 57 -151 71 -21 25 17 16 88 -22z m-222 17
c-14 -12 -141 -53 -129 -41 18 18 89 49 114 50 14 0 20 -4 15 -9z m157 -93
c98 -51 180 -128 213 -200 13 -29 29 -91 35 -138 6 -47 18 -102 26 -123 14
-37 13 -42 -11 -91 -14 -28 -37 -99 -51 -156 -14 -58 -42 -150 -62 -205 -34
-93 -43 -106 -117 -183 -86 -90 -109 -106 -170 -117 -22 -4 -48 -15 -58 -23
-13 -12 -20 -13 -29 -4 -7 7 -20 12 -30 12 -10 0 -35 9 -55 20 -21 11 -50 20
-65 20 -28 0 -63 25 -156 114 -74 71 -82 104 -82 329 0 131 4 196 16 241 39
152 164 343 279 427 33 24 67 52 77 61 24 24 98 56 131 57 16 1 65 -18 109
-41z m-447 -74 c-56 -51 -81 -69 -83 -58 -4 15 106 123 137 135 37 15 21 -7
-54 -77z m155 52 c-20 -19 -60 -30 -60 -17 0 13 30 30 55 31 17 0 17 -2 5 -14z
m455 -20 c35 -15 47 -36 21 -36 -15 0 -77 49 -63 50 4 0 23 -7 42 -14z m123
-63 c5 -10 12 -37 16 -60 3 -23 8 -50 12 -60 3 -10 -11 13 -31 50 -33 63 -37
87 -15 87 5 0 13 -8 18 -17z m-813 -142 c-3 -6 -11 -11 -17 -11 -6 0 -6 6 2
15 14 17 26 13 15 -4z m865 -66 c0 -8 -2 -15 -4 -15 -2 0 -6 7 -10 15 -3 8 -1
15 4 15 6 0 10 -7 10 -15z m-900 -2 c-1 -5 -9 -24 -20 -43 -21 -38 -28 -18 -8
25 10 23 29 35 28 18z m900 -311 c0 -9 -5 -24 -10 -32 -7 -11 -10 -5 -10 23 0
23 4 36 10 32 6 -3 10 -14 10 -23z m41 -92 c-9 -23 -10 -23 -10 11 -1 20 2 39
7 43 11 12 14 -27 3 -54z m-125 -17 c-11 -11 -19 6 -11 24 8 17 8 17 12 0 3
-10 2 -21 -1 -24z m-31 -147 c-9 -31 -21 -58 -26 -61 -5 -4 -9 -4 -9 -1 0 13
30 144 37 161 16 40 15 -41 -2 -99z m-45 -110 c0 -55 -47 -130 -113 -182 -65
-50 -81 -38 -18 15 28 24 48 47 45 52 -3 5 4 23 16 39 12 17 26 46 31 65 11
40 39 48 39 11z m-810 -84 c0 -13 -3 -12 -20 3 -11 10 -20 28 -20 39 1 20 1
20 20 -3 11 -13 20 -30 20 -39z m784 -163 c-16 -17 -37 -35 -47 -41 -16 -8
-17 -7 -8 10 13 24 59 62 74 62 6 0 -2 -14 -19 -31z m-287 5 c-3 -3 -12 -4
-19 -1 -8 3 -5 6 6 6 11 1 17 -2 13 -5z m-217 -14 c0 -5 -7 -7 -15 -4 -8 4
-15 8 -15 10 0 2 7 4 15 4 8 0 15 -4 15 -10z m281 -64 c-12 -15 -60 -30 -68
-22 -3 2 12 13 34 24 41 22 53 21 34 -2z m-111 4 c0 -5 -15 -10 -34 -10 -19 0
-38 5 -41 10 -4 6 10 10 34 10 23 0 41 -4 41 -10z m195 -20 c3 -5 1 -10 -4
-10 -6 0 -11 5 -11 10 0 6 2 10 4 10 3 0 8 -4 11 -10z m-410 -38 c26 -10 76
-14 145 -14 l105 0 -55 -14 c-67 -18 -154 -13 -233 14 -75 25 -99 47 -42 36
22 -4 58 -14 80 -22z"/>
<path d="M4707 3760 c-96 -12 -141 -35 -203 -103 -82 -91 -87 -105 -82 -212 4
-81 10 -101 45 -176 23 -46 44 -94 48 -107 10 -34 149 -166 191 -181 20 -7 64
-31 96 -52 32 -20 91 -50 131 -65 109 -41 158 -68 199 -111 46 -47 92 -146 79
-171 -5 -9 -16 -42 -25 -72 -24 -85 -33 -92 -127 -111 -53 -10 -72 -17 -51
-18 22 -1 31 -5 26 -12 -5 -8 -30 -9 -81 -5 -83 8 -182 45 -227 85 -30 28
-179 224 -211 278 -18 32 -21 33 -82 32 -51 -1 -63 -4 -68 -20 -3 -10 -12 -98
-19 -196 -10 -131 -11 -180 -2 -185 10 -7 105 -2 154 8 20 4 22 10 22 76 l0
71 29 -39 c16 -21 57 -67 92 -101 60 -58 70 -63 154 -86 135 -37 187 -48 192
-43 3 3 -15 10 -38 16 -140 35 -242 73 -272 101 -36 35 -33 34 78 -15 89 -40
144 -53 258 -62 76 -6 78 -7 62 -24 -10 -11 -31 -21 -49 -23 l-31 -4 35 -1
c57 -3 180 74 216 135 39 64 42 74 54 150 9 54 8 83 -6 152 -9 47 -21 94 -26
104 -14 28 -95 115 -153 166 -62 54 -174 120 -141 83 23 -26 16 -28 -25 -6
-20 10 -29 21 -25 30 4 10 -2 14 -22 14 -50 0 -67 3 -77 16 -5 7 -42 29 -81
49 -112 56 -152 114 -161 229 -6 74 -5 76 36 145 23 39 49 75 59 80 34 17 224
53 253 47 66 -13 169 -112 169 -161 0 -9 11 -33 25 -53 14 -20 25 -43 25 -52
0 -8 5 -32 11 -52 10 -38 10 -38 63 -38 l53 0 5 48 c3 26 6 131 7 233 l3 187
-69 4 c-37 3 -76 8 -85 13 -15 6 -18 2 -18 -28 0 -20 -4 -39 -10 -42 -5 -3
-30 6 -55 21 -28 16 -84 34 -143 45 -103 20 -114 21 -205 9z m98 -18 c-15 -13
-210 -56 -226 -50 -22 9 50 36 122 46 86 13 115 14 104 4z m391 -37 c18 -15
18 -15 -10 -13 -16 2 -31 9 -34 16 -5 17 20 15 44 -3z m-366 -29 c0 -19 -17
-30 -25 -17 -3 6 -35 -3 -76 -20 -39 -17 -76 -28 -82 -26 -12 4 31 25 118 58
61 22 65 23 65 5z m225 -16 c7 -12 -19 -12 -55 0 -22 7 -21 8 12 9 20 1 40 -3
43 -9z m120 1 c3 -5 1 -12 -5 -16 -5 -3 -10 1 -10 9 0 18 6 21 15 7z m-570
-21 c-3 -5 -11 -10 -16 -10 -6 0 -7 5 -4 10 3 6 11 10 16 10 6 0 7 -4 4 -10z
m505 -10 c0 -5 -4 -10 -10 -10 -5 0 -10 5 -10 10 0 6 5 10 10 10 6 0 10 -4 10
-10z m138 -29 c8 -23 7 -31 -8 -44 -17 -14 -20 -14 -32 0 -15 18 -12 65 5 75
15 9 24 2 35 -31z m-618 -50 c0 -13 -37 -24 -50 -16 -6 4 -8 11 -5 16 8 12 55
12 55 0z m-50 -40 c0 -12 -41 -63 -47 -58 -8 9 27 78 37 72 5 -3 10 -10 10
-14z m630 -25 c0 -3 -4 -8 -10 -11 -5 -3 -10 -1 -10 4 0 6 5 11 10 11 6 0 10
-2 10 -4z m37 -48 c-3 -7 -5 -2 -5 12 0 14 2 19 5 13 2 -7 2 -19 0 -25z m-34
-70 c7 -25 0 -41 -14 -33 -12 8 -12 55 0 55 5 0 11 -10 14 -22z m-665 -177 c3
-8 -1 -12 -9 -9 -7 2 -15 10 -17 17 -3 8 1 12 9 9 7 -2 15 -10 17 -17z m52
-56 c17 -9 30 -20 30 -26 0 -11 -55 15 -65 31 -9 14 1 13 35 -5z m300 -110
c17 -9 30 -20 30 -26 0 -11 -55 15 -65 31 -9 14 1 13 35 -5z m93 -137 c31 -16
13 -20 -37 -7 -58 15 -75 35 -20 24 21 -4 47 -11 57 -17z m-590 -370 c-2 -5
-8 -8 -14 -8 -11 0 -12 93 -1 104 7 8 22 -84 15 -96z m57 -55 c0 -47 -4 -63
-14 -63 -17 0 -28 108 -12 132 16 27 26 2 26 -69z m-60 12 c0 -14 -4 -25 -9
-25 -4 0 -6 11 -3 25 2 14 6 25 8 25 2 0 4 -11 4 -25z m190 5 c7 -13 7 -20 1
-20 -6 0 -15 9 -21 20 -7 13 -7 20 -1 20 6 0 15 -9 21 -20z m71 -17 c13 -16
12 -17 -3 -4 -17 13 -22 21 -14 21 2 0 10 -8 17 -17z m569 -27 c0 -3 -4 -8
-10 -11 -5 -3 -10 -1 -10 4 0 6 5 11 10 11 6 0 10 -2 10 -4z m-75 -106 c-3 -5
-27 -10 -53 -9 -35 0 -42 3 -27 9 28 12 88 12 80 0z"/>
<path d="M14007 3760 c-96 -12 -141 -35 -203 -103 -82 -90 -92 -116 -82 -222
6 -70 14 -101 47 -168 21 -45 42 -92 46 -105 10 -34 149 -166 191 -181 20 -7
64 -31 96 -52 32 -20 91 -50 131 -65 109 -41 158 -68 199 -111 46 -47 92 -146
79 -171 -5 -9 -16 -42 -25 -72 -24 -85 -33 -92 -127 -111 -53 -10 -72 -17 -51
-18 22 -1 31 -5 26 -12 -5 -8 -30 -9 -81 -5 -83 8 -182 45 -227 85 -30 28
-179 224 -211 278 -18 32 -21 33 -82 32 -51 -1 -63 -4 -68 -20 -3 -10 -12 -98
-19 -196 -10 -131 -11 -180 -2 -185 10 -7 105 -2 154 8 20 4 22 10 22 76 l0
71 29 -39 c16 -21 57 -67 92 -101 60 -58 70 -63 154 -86 135 -37 187 -48 192
-43 3 3 -15 10 -38 16 -140 35 -242 73 -272 101 -36 35 -33 34 78 -15 89 -40
144 -53 258 -62 76 -6 78 -7 62 -24 -10 -11 -31 -21 -49 -23 l-31 -4 34 -1
c23 -1 57 11 107 39 60 33 81 51 109 94 68 107 77 231 29 396 -7 23 -94 121
-158 177 -63 55 -175 121 -142 84 23 -26 16 -28 -25 -6 -20 10 -29 21 -25 30
4 10 -2 14 -22 14 -50 0 -67 3 -77 16 -5 7 -42 29 -81 49 -112 56 -152 114
-161 229 -6 74 -5 76 36 145 23 39 49 75 59 80 34 17 224 53 253 47 66 -13
169 -112 169 -161 0 -9 11 -33 25 -53 14 -20 25 -43 25 -52 0 -8 5 -32 11 -52
10 -38 10 -38 63 -38 l53 0 5 48 c3 26 6 131 7 233 l3 187 -69 4 c-37 3 -76 8
-85 13 -15 6 -18 2 -18 -28 0 -20 -4 -39 -10 -42 -5 -3 -30 6 -55 21 -28 16
-84 34 -143 45 -103 20 -114 21 -205 9z m98 -18 c-15 -13 -210 -56 -226 -50
-22 9 50 36 122 46 86 13 115 14 104 4z m391 -37 c18 -15 18 -15 -10 -13 -16
2 -31 9 -34 16 -5 17 20 15 44 -3z m-366 -29 c0 -19 -17 -30 -25 -17 -3 6 -35
-3 -76 -20 -39 -17 -76 -28 -82 -26 -12 4 31 25 118 58 61 22 65 23 65 5z
m225 -16 c7 -12 -19 -12 -55 0 -22 7 -21 8 12 9 20 1 40 -3 43 -9z m120 1 c3
-5 1 -12 -5 -16 -5 -3 -10 1 -10 9 0 18 6 21 15 7z m-570 -21 c-3 -5 -11 -10
-16 -10 -6 0 -7 5 -4 10 3 6 11 10 16 10 6 0 7 -4 4 -10z m505 -10 c0 -5 -4
-10 -10 -10 -5 0 -10 5 -10 10 0 6 5 10 10 10 6 0 10 -4 10 -10z m138 -29 c8
-23 7 -31 -8 -44 -17 -14 -20 -14 -32 0 -15 18 -12 65 5 75 15 9 24 2 35 -31z
m-618 -50 c0 -13 -37 -24 -50 -16 -6 4 -8 11 -5 16 8 12 55 12 55 0z m-50 -40
c0 -12 -41 -63 -47 -58 -8 9 27 78 37 72 5 -3 10 -10 10 -14z m630 -25 c0 -3
-4 -8 -10 -11 -5 -3 -10 -1 -10 4 0 6 5 11 10 11 6 0 10 -2 10 -4z m37 -48
c-3 -7 -5 -2 -5 12 0 14 2 19 5 13 2 -7 2 -19 0 -25z m-34 -70 c7 -25 0 -41
-14 -33 -12 8 -12 55 0 55 5 0 11 -10 14 -22z m-665 -177 c3 -8 -1 -12 -9 -9
-7 2 -15 10 -17 17 -3 8 1 12 9 9 7 -2 15 -10 17 -17z m52 -56 c17 -9 30 -20
30 -26 0 -11 -55 15 -65 31 -9 14 1 13 35 -5z m300 -110 c17 -9 30 -20 30 -26
0 -11 -55 15 -65 31 -9 14 1 13 35 -5z m93 -137 c31 -16 13 -20 -37 -7 -58 15
-75 35 -20 24 21 -4 47 -11 57 -17z m-590 -370 c-2 -5 -8 -8 -14 -8 -11 0 -12
93 -1 104 7 8 22 -84 15 -96z m57 -55 c0 -47 -4 -63 -14 -63 -17 0 -28 108
-12 132 16 27 26 2 26 -69z m-60 12 c0 -14 -4 -25 -9 -25 -4 0 -6 11 -3 25 2
14 6 25 8 25 2 0 4 -11 4 -25z m190 5 c7 -13 7 -20 1 -20 -6 0 -15 9 -21 20
-7 13 -7 20 -1 20 6 0 15 -9 21 -20z m71 -17 c13 -16 12 -17 -3 -4 -10 7 -18
15 -18 17 0 8 8 3 21 -13z m569 -27 c0 -3 -4 -8 -10 -11 -5 -3 -10 -1 -10 4 0
6 5 11 10 11 6 0 10 -2 10 -4z m-75 -106 c-3 -5 -27 -10 -53 -9 -35 0 -42 3
-27 9 28 12 88 12 80 0z"/>
<path d="M5868 3680 c-114 -38 -187 -76 -273 -140 -111 -82 -134 -109 -151
-170 -9 -30 -29 -94 -45 -141 -26 -79 -29 -99 -29 -223 0 -135 0 -137 24 -146
29 -11 40 -26 30 -41 -5 -8 -10 -6 -16 5 -15 26 -28 19 -28 -16 0 -61 32 -203
60 -264 36 -81 121 -211 163 -252 49 -47 175 -94 262 -97 39 -1 102 -12 140
-24 l70 -22 69 22 c38 13 107 42 154 66 47 24 86 42 87 41 0 -2 9 -22 20 -46
28 -65 34 -67 109 -30 55 27 64 35 52 44 -14 10 -14 17 -2 65 25 94 29 166 16
252 -7 45 -17 88 -23 95 -13 17 -105 16 -123 -2 -8 -9 -14 -34 -14 -61 0 -46
-1 -48 -107 -152 -60 -58 -126 -114 -148 -124 -119 -55 -367 10 -452 118 -64
81 -150 260 -184 383 -7 25 -13 104 -13 175 -1 117 2 139 28 218 36 111 68
154 158 216 71 48 158 120 128 105 -8 -4 -34 -23 -58 -41 -23 -19 -47 -33 -54
-31 -13 5 19 38 77 77 38 26 45 28 135 25 109 -3 221 -26 268 -55 31 -18 82
-104 82 -138 0 -8 13 -44 29 -80 16 -36 31 -73 34 -82 4 -14 12 -14 60 -5 60
12 69 17 74 44 13 69 22 184 22 275 l1 107 -47 30 c-47 30 -77 37 -87 21 -3
-5 1 -14 9 -21 8 -7 15 -20 15 -28 0 -12 -3 -13 -12 -4 -19 19 -30 14 -28 -10
5 -59 -17 -64 -76 -17 -77 61 -202 109 -284 109 -19 0 -74 -14 -122 -30z m72
-14 c0 -2 -7 -6 -15 -10 -8 -3 -15 -1 -15 4 0 6 7 10 15 10 8 0 15 -2 15 -4z
m143 -3 c-7 -2 -19 -2 -25 0 -7 3 -2 5 12 5 14 0 19 -2 13 -5z m-283 -38 c0
-2 -14 -12 -31 -20 -40 -21 -63 -13 -24 8 29 16 55 22 55 12z m330 -21 l45
-25 -40 6 c-78 11 -95 17 -95 31 0 21 39 16 90 -12z m204 -85 c-4 -6 -11 -6
-20 2 -21 17 -17 31 6 19 11 -6 18 -15 14 -21z m-779 -89 c-3 -5 -13 -10 -21
-10 -8 0 -12 5 -9 10 3 6 13 10 21 10 8 0 12 -4 9 -10z m845 -129 c0 -12 -20
-25 -27 -18 -7 7 6 27 18 27 5 0 9 -4 9 -9z m-10 -60 c0 -6 -4 -13 -10 -16 -5
-3 -10 1 -10 9 0 9 5 16 10 16 6 0 10 -4 10 -9z m-979 -164 c-13 -13 -15 1 -4
30 7 17 8 17 11 -1 2 -10 -1 -23 -7 -29z m94 -228 c13 -57 27 -114 31 -126 12
-42 -13 -23 -39 30 -23 43 -27 66 -27 131 0 44 2 77 5 74 3 -3 17 -52 30 -109z
m-65 75 c0 -8 -4 -14 -10 -14 -5 0 -10 9 -10 21 0 11 5 17 10 14 6 -3 10 -13
10 -21z m60 -337 c0 -5 -7 -4 -15 3 -8 7 -15 20 -15 29 1 13 3 13 15 -3 8 -11
15 -24 15 -29z m1000 -17 c0 -5 -6 -10 -14 -10 -8 0 -18 5 -21 10 -3 6 3 10
14 10 12 0 21 -4 21 -10z m20 -40 c0 -21 -15 -27 -25 -10 -7 12 2 30 16 30 5
0 9 -9 9 -20z m-40 -31 c0 -11 -4 -17 -10 -14 -5 3 -10 13 -10 21 0 8 5 14 10
14 6 0 10 -9 10 -21z m-836 -68 c-7 -8 -54 47 -54 62 1 7 14 -3 30 -22 16 -19
27 -37 24 -40z m-84 -2 c0 -6 -4 -7 -10 -4 -5 3 -10 11 -10 16 0 6 5 7 10 4 6
-3 10 -11 10 -16z m141 -27 c28 -23 11 -37 -19 -16 -22 15 -29 34 -13 34 5 0
19 -8 32 -18z m-94 -24 c26 -25 29 -38 8 -38 -8 0 -21 14 -30 30 -18 35 -10
38 22 8z m178 -48 c7 -12 -12 -12 -40 0 -18 8 -17 9 7 9 15 1 30 -3 33 -9z
m-14 -61 c46 -20 64 -39 38 -39 -25 0 -128 43 -123 51 8 14 31 11 85 -12z
m129 -7 c36 -10 48 -17 35 -20 -29 -6 -122 17 -136 34 -14 17 -1 15 101 -14z
m230 -6 c0 -31 -125 -31 -151 0 -10 12 0 14 70 14 63 0 81 -3 81 -14z m395
-25 c-15 -13 -63 -22 -69 -12 -9 14 5 21 43 21 20 0 31 -4 26 -9z m-375 -36
c-41 -22 -134 -36 -116 -17 11 11 108 40 136 41 21 0 17 -4 -20 -24z"/>
</g>
</svg>
